<mxfile host="app.diagrams.net" modified="2022-11-12T18:08:44.126Z" agent="5.0 (Windows NT 10.0; Win64; x64) AppleWebKit/537.36 (KHTML, like Gecko) Chrome/107.0.0.0 Safari/537.36 Edg/107.0.1418.42" etag="jtvXtFp6z3MlGDYi29UW" version="20.5.3" type="github">
  <diagram id="4N_W1neSTi6u585VVPKa" name="Page-1">
    <mxGraphModel dx="595" dy="344" grid="1" gridSize="10" guides="1" tooltips="1" connect="1" arrows="1" fold="1" page="1" pageScale="1" pageWidth="827" pageHeight="1169" math="0" shadow="0">
      <root>
        <mxCell id="0" />
        <mxCell id="1" parent="0" />
        <mxCell id="cc3j7SDkdOwBxZKZKRrG-1" value="" style="shape=image;verticalLabelPosition=bottom;labelBackgroundColor=default;verticalAlign=top;aspect=fixed;imageAspect=0;image=data:image/png,iVBORw0KGgoAAAANSUhEUgAAAXsAAAClCAYAAAC9fV3gAAAAAXNSR0IArs4c6QAAAARnQU1BAACxjwv8YQUAAAAJcEhZcwAAFxEAABcRAcom8z8AALFXSURBVHhe7Z0HuCZVla71zr13Zu4kE0GyoogSRAQVdcbJo+M4Y3bGHDAHRILkKKgEyVGiDQKSRJSkBBEVybEBSSI5dEND04Fu2Lfe6n67v17Wf+jTOve545zzPN+z117rW2Hvqtq1q/6//37GxN/E38TfxN/E33+fv091uLdDm8AEJjCBCfze4OEOO3RY8IdiiDiBCUxgAhP4r49ndej/howTmMAEJjCB3w+s0qH/W6B83etetwB/+Zd/2bevf/3re9CnTQ547Wtf28O+fGVtxpCnjtbY9rWJ9BuLo80+cvoqZ00g699ggw0WsVeuOlriCTjJpVXOGvRHTn3No14drbnkAmsB2GjV1by2cqoNmEMOrX3b9BPpX/XKmRPYT65IHS1xleWgG9LLVyePvpBrDVmLMYF+2DOOXJDnjHraGvOv/uqvFtgAfsrGSqAfVR8tuuQK7ckDmU+bvKxN/VhyAv+0269wDGAoVh1j2uRmLm3ojFdrkWNfjrbs0zqnxkl/Wmt0PnNMWX/yjSdSL0+/zEt/iDeUZ911123vec972mOPPdauvfZa1vPbY23/zcWeRBnA1uDVLmryIejrYJBp6WszHsiY6ipH4A9foLPVPuQ7xFWGL7KfsnFp9a8cQVwvNvnJzbzVP+ODrBtgtxb9tSFnLPpyucC1Jy/ljG28IR1A1r8iecZWX2Mog6F46rKtqHzrTX7akg88VtYDD1lf/eXZV7bv+AS6nD/52LKOGs+26iu0gcxhn1YuOWnlCfnCurVZa/Jp0WdM9LYiY42CsfVFpqWvzXig1kc7Fsc61dmCWq8Y4iqbz5xDco4p/Wi12cdez6tqr7ZXvvKV7d///d8Xf7E3IMhBp35IZ3HI+Fm8PH3g6SPQZy6gzUHVWmgzlrKt3AQxjCentvLUOQ6hP0DOfHK1IatjUa07J+OIjEUr7FtX8gD6zC13qF91IuOAtKdPyrTWAuBqSz1yHRst5wt6dZVb88vNWMiZN6HOmLWfPEHfnGnP/qic9DOXHPnJ01c57SlzzlRfa1fWX94ofdpphVxt+mlPWbv85Azph/rkcwz4VV9lOQn08LXZR86YxlJvn1ZkjApzIMsZalO2DnX6K2c+a9SmH3rXCu36JD/1+rLYj2tnj1MW6QAyuMVlwWnPvlxa+PpkP+MY15NcrnHkCPu08NWn7yhelfUDQ/kyhr7K9tXZZhx0NQ7tUJz08SaRuvSnNU/y0j6kM2/6EKfyaOEKOfon1zrSlhx95Y+FzJs5jW08Yy1OfGOmT5UzprnQDfllP2sbxUmbrXHVOYZE7vJE8pRpReUhj2qFfc+5ahfqjQ3q2LXlvGnLtsog55I49tUBfFwY1Y+1G84+/JSxOWfpn/nSB9Q5sh3SZRxAXx1tzmPlZxzl5Klbb7312nvf+94l29lbQPadEGAi4ITbx6/6Azk1FoArX14OpvIS5oJfW3y0DyHrtC/Q1RrUC3MJ+SL9aozkZpzML6pPzaWc9rH0oOZBrn7JRxapU06oH+JmHlrgxWNN6q2PeuQIa5RjzKxdXfZTnzJxXDDUpa9x7VcesrXDBcmzL9+6s35gDJ+W9bHN2HK1ZRwgdwjY8Td/zZH9ak+kP6g3J2OBulaYv8aVU+sDcOXLo029ckXGol/9taePyDrti4yRfPSi2uv5DNIv5axTm3Yw7tc4Js8kQ8iE2Vce8k+uNlr02rQL9TVexkoOLTz06tSP1Tdf6oljfamnHdLbp621VnuVq07fIWh37OlXfUdxtYGs1XHlXMitMueKMnx89QcZyxZu5gPyscsFyRkFuaMgh9bYWaMwd8aEpw5ZP/rq5Ctn3zjZz3jy1Q3p9bcvVznt+Ka/8JpO3/RLeEyNow99+bTo61ohNznIqR/qZ2yRfWuxrbGV9aGVm/oEOpH1JFe7feus9aPDpj1toN74kO0r5xi0jeJWndxxL/Y652SJTFAxNOG06EFOlD7Y5VZ/ZZATqV05dWP5ZztWrtTT6kPfk3usWtJfwAepgzMUh9Y5s588McRXTh9bdNrVq1ucOjJO2mlTR6uc+srJnCBj5Tyrl1f9adFlrWmvMlz5ykJ78vSv8QD2jKM9+8qgxlBnDHVpd1zK2kXqaM2RPvTzaUUd3MxTY9NPnfJYOtohnkBnfvupB1lT8uSO0gPHP2RLqB/lP6qGlO3b6otPnsOVJ1KvzHHSRx19Y6eellz2Wezf/e53j/81jsFrAkGSUZBrDHS0xsm+A9GWPCA34yQn8wFjJV+uOuSas0Jb2vWtevuOVx18a8h8ieRXufKMX/XZB/CyllqXsC+nyslRFsZ0jM6NOmTHjpw1APqpk59+uSOyTV7qkNEL+kOQPxaMD9Iv44DF4dGXV+3IzoFt2lOXsn2A7HiTgy533vplP31SNyRnH+TYrWMs7ijobx3oMk725WlLHoCrXT859AGyem20mafqklchP2NnX1S+400+qGMU1T/78pf4NU4mtLA6oIQ6OBaiX0J+8uiTV7lykYmV+ZNDq632lZOv3v6QXWDLWGmzn762+gjqd07h2JcvtGWb/MpTTr2oOmrKeU5ot+66UNCaD06NUXUZC73+crIdktPXsac9kTb9Upc2kDq4VaY1jqBPzLRVrrGzXnTqBbZ6I1NOVHv2U59y1qZsLbRp10arzr51q5ePzv6otaLytAl0NTZ+ygK7dWhHN7RWZD/rSZswd+3DM1fajZG8aqfFDuQPcdJma1x19dygntSJnDPkcX/PniAWbFCD2VdXZXlpU5+cqs/Yyc2Jq5Bb6xrK72TKNway/ulX/RMZy/oypv3qZ67kpz55NU7K5lef3FF9fPSjxVbttNjVq0uesrmTj6w+OdUna1GXbZWBJ7qonCG56qjDPjKwDuyVb7/WLyd97QP66SPPnMj2lTO+/qkfild9kO3LT1u2wBzGE/IqsgZjIDtmeci1/mxTlpfQPiTrk3MgxzpSlzJ+mQ89fe0i48gfkuWA9E9kncatvsYVyaFNvn25aQN8G2fciz0YupMI7qwOBNSk6uXUIkHlgpwcdfISGYu+ftSVueSnjE2d3PTJGuTTF9i1ZT85GU9u5Qj0zHXyabMe/a1tCPpVTvpZl/GU9UtdImNlX1221i0XMD75wt3ZqHzUY92pQ84c6mlTB4ZiJ7AnRz/j5A5yiGcfZK1CnnVXm62xnafU0wp9tVc9cs6FyOuVmHltD/GxWZP9lGtdQ2sFfWJnbn0zFi12UO2CftXJT508QSxrrVxQrzs56W/fWECetuqfqHrkrN2Y2pTtp6xdvTpAzPXXX398i/1QQA8GQGcrL33k6Z8842ULjFdhPOXU02LLGrRVLhz56tM+5KOs7yhwMtPWPBl3KIY56vgcT/VBNzQX9kfpgLGSl7bU0Vp/1qBNucI4+IJcKIX1V1mesVI3Fqfq65wl0m+Iq82xA2u0j6yfurRlq5xQ71ylbpReueqqL33qFZ6X6uEYv+aRhyySk9CuXGOZX76yvPTJGoH27GcLMnYCjrb0S33WkHZk+3CQ8UmbdnXZylU3Clk7eeinr5BnPNv0R+d4rHnc7+wNZsBRcvbTri0n1mKq3oHWGDmooX7qiAeGYtkfipvc1KXevhjy16YeWItwzMlJwK+xRbVVu/1qc17spz5bMCrmEFfUfKkDWTOydmXt9oF50CPTDtlsE0M1iloL3Iw3BP3kZDvKbyim/PSrOpD1V9+0pVyhj/7ZT0721TlH9tNmn9z2c06124IaL3mVW8enLfV5LLTXGsBYurqT124O5RojudpSl33aGqPa1IPcFNE65uQkiJs1JHiN8x//8R/jf2dP0pzsDK7NpFkgso91ydee/SE7qANSl/0q15jax4qTOmRi0AfIta9sDHPaGgebrbJ2OUJO6rNPmzFqzrQJY6ZdvrraT6jPcaVeOduU5dNWX5E+5BFpT1v6GFcdMpz0Qa5+NZ48bck1h3kAstxsRe2njjbroR2y2aYtgT3jyFFOn5TtO57ki+SCWi99ZOdBOWuSYwzXAvNmzPQTac/+kN381pP6lO2rqzFH8a252pGJYR8ZWEfa6rhta+w6Bvpy1KmXl1xkFvsl+p69AS1OnXp1ygl9KuTTUiA8UW05UONVnX5AWa56+RXYMp58dLSZM3Vy1CWMQ1vrAIvjR5scdKm3n3p5WTO6rFee/aEYIHW2yR/ipCxf1Ndc1qRf+iQv7fpoV67jyxjKFTWeuoyLb/pXe5WzP6TPukCND6ypjh3IqXoAv44n+dmHR159k1dj0crRlj7qU9Y3gb7yFgdy9TO/ObRxfuWYsobUyU9O6pNfgW1o3oRx8piaox5nYRxauQn89DU2bfpV3ri/jcOdOANk0eoyaUJ9tY3FrbqUnUT15LevPf1SZz+52QeVk35jydk6JxXYhqDd+URnbeoSOZ6Mm+MZsuMrL2202FJnX19tQ7r0Ra59WvlpA9ZSeQI9OscmR6AX2FLGN/OlHzB22tVVfYU5ql1dotqUa377xNYH3VCuUf0hECP7yTdXtWcNaRuqMYEejjmzrw5exhQZp+prn7gg9dmXk/HIbz/12SpnHxi7yokag7bWlC1wTir0pU2Mxct59ob3ile8Yvw7+yzKAajLIlLGXoupHPuixq5yRfoAcyFnPpF6oV5kjPSrQJ+5gf201TrSx1wguRXoQXL1lZNx0ddY6Z9+QP6QPvuj9PRTZyxa30EmR5utPvpXwKvjVZd9WjYn9odi65P+1iJHoEueutpPX/t1POrxHbKj1ybSD+gzZDeOUFfHlnxlYGxr0K5f5laHnDUnTzv9jK1ejshY8GkrLznaMp9+9hP62s9cmU/AydggbbTGqLYKuamzr81cxqk+5gL0ky8n9fDZ2Y/7A1oCOiH2U6ZNvToLrDxi1XiVnzyQfX2EvgJd8tClvz4i+/Irp/op13rMhazNupAT+qScNVpHxtF3KKa+9o1p33hDev3Sbh1CfuWlPVvljJ0y7Sg5xwGGak/ZuUidMTJW9U2+XDCk1y/begz0yxgiufSrX9WnTnmoNvugzlNCvj5VpsXfGOqqPf2Ac6bOGulnrPSVK5KXMLY89ZVvflt3t8j6ysdXpA/21IHMITJe2pEzlnpjCmzo5CCbS1vNXWWQuYynjv64v41Tg9RkFgW00arXp8ZJe8aoetraT2AjNqBvHpG81NkO7TxFzZ951GW9tNrRp7+o/YynXSQvxz7Esw7hPGR8dembuuTT1pjoc0y1X7kpA3OJmqPGsW9N1Z6csWxDcsZEtjbHk8gxIoP0l5Px5aesf+qNUxcn7fopm197Qm7yHZdy5doHcsfiZb3qlPXPcchXJ0dZ21AOfdKuDIb06VeBveZHFnKGdMR0rdA389Sc2B2HPinTpj7r1zaE6qucY7EWFvtxf88e4GxAk9AOyZVTdTkx6oGToz19bJMvUqecsUBOhty0I2tPnnb7GTe5GR9oN3ZCDjJ++qZdW/aTA6xNOe21nprHdlSOak9oA+Y1frVnPPML+tavLv0S6kXGMrc6/W0rkps62vQxF7BO4EWPD325xqhjEjXHUE580RujxpQ7Sgb4VJ36bAU8dWP5JeQBaqu2WsOQnP1sBf2hcdMaP3NXjnLVpx0QizjmyvHqD+SkTRl409M2VCO6jA+0m99+xjeeMbVVTrbj3tlnYpNlUmxZAF/3WXPNNdtLX/rS9rKXvaytscYaPdCBKifkr7XWWr1sH27K2YcLjIdeWS6y3GpLpJ6Jcny2HgxQDyxtIm0AX3yMIc+5TG7alVOXMZKfceRW/Vi5PNZpr3zl5NHCkwOMVWW52VauPHXJpY8M5KqzHYqlvsrCOKLaM1Yu9tpo05cWfc2VeqCPsjw45kwZm75AvkibsY1RfdDRYldvDqEt/UB+nRqbOegjY9dHu3zk5Nf42lNOnT60jkt99uUnF6BPH7kJefqlrfogEw9etYGqV6665IvkkwPIE6nLeKxh4/qevYVmYIDOYtQR/FOf+lTbf//923777df23XffvgXqaj/1KVdf+8hDfaCfsvbKqxiyf+Yzn+lvXDl5zoEHInVyhDzmxBuIN6a11167vepVr1owf/yzZm9IAg76jEXrPOfNiZZP3vMCk58teuz0rVM9uuSpo824ADnjaLNvrFHQFyTfWqtdVF2OTVv6VlgnUNYX2bbK9jO2/shZh3zkrKtyUw8ynvqhGNZAq09iSDfkrz7tiaE6R+nNiS3jZi3a0CUfrrqMCZRTp2/V2Sem/cypz5Au+8mjrdAuhuJVO2210RfyMqf99FNO36qTC5boH1UBBpOFJ+Swqz7mmGPa78PfiSee2C+ijm/oQNivB1oZ/UYbbdT22muv/oZywAEHtH322aftsMMO7S1veUu/QLPov//97+852Lz57Lzzzv37tlzwX/Oa1/Typz/96fbVr351wY0N34033ri98Y1vXMCxFmtFRz3qa83aHJc29LnYJ1cZfcayL8yvHaQuW5F9fapsrdUGjC/SBqo+x4GcYwTEqxz1tBkrZfuCfvWxzZjpo736JKxZ+xAn4c48x4RPra2OM21j9TOOSI622h9CrSn5tj5tpR0/oD7j5FzVvrq01XlSzhzZN072sQ/lSXv60E97+lSb/eSwKRzXO3uKqwkMamtCdpmHH374/OXyv/bfpEmT+vEwRucgJ70egIRzxJ31/PPPnx9x0b/TTjut/eu//mt78Ytf3PbYY4/52kX/fvSjH/UHi/yvfvWr+9hf+9rX2h133DGfsfDv9ttvbx//+Mf7r1tlDXkyWF/a5VR75aRdmda5yT5Qrn7Z157cCrmjkOOTT6y0JWpc+1mr/eQ4R3LkZw5lbAl9Kk9Zu6327KcOVJ15RiHjAfm1zRzq9bEvF9QalDOOctacPPXGRta3+gwt6kBO1kafVl3atSXQVX3tZ33Ysj5jZ71ylPXLvvHwT71c7RXoay70xlminzgmgMFystJGy074sMMOm7/8/Nf+4wmFVy5OZo4zddmndaLRsys/44wz+ng/+MEP2o477tjv3m+44YZed9BBB7WVVlqp36Xzd/nll/c7ep4AfvnLX7Ynn3yyHXHEEf0ujFh77rlnmzlzZnv00Ufb6aef3r7xjW+0r3/96z0H8MjGDYb8CWuvdScHG9BWOcpp81xIW+ryXDF35dU2kfzaVxYuAsBx0BJXH+Tsp7/27Fc5fQU6WudPu7mQjZO+VZd9dTkOx2IN6rCbJ/MpJ1KXeaqfu/4hbraJIRuxhuwi9YxF7hCqT42dcZQBvAr52c9Y6Wtd6tNu32NhP5G69INPfPvaa5y027dmuOq0C3SsBeP+R1XAwgxkm/h9WuwndTt7F3sn1UlmrDnR9mnRiVzst9pqq7bqqqv2cHH/zne+01ZcccV+webvpJNOai960Yv6WN/61rd63VlnndXH3XDDDftFngPHaxte11Afj2q8DgL5CifrUJc11hOGVrscbeqqPW1D/MxBXzvIudRfyK9ytmKUjzzzCDno9RGVk0hd+iLTZqzqN6QfgnWD9BmSU/d0sEbk6oecY0BOvsDmGPXThxYfuTVf8kXqlP0CQ/oBcyQ/86mjrVzjOS556Q/0067eONVXvb4JdPJrXDCkk0urPnOCak89bbWxNozrnb0BcnJqsfZ5Z//7stiz2HLzYlyM3fHXA+CciORzZ3WxZ1f/8pe/vI+57bbbtqeeeqr/XCAX++OPP7694AUvaP/yL//SzjvvvH4Xj+3v//7v+9c+c+fO7eP97d/+7SLv8m2FxyNrtT7gSSM/ZW0iOUP6IWDPHNRBi07ZOEP5UoeMTqiTK0+oyzxDPONqB86X0C6XNnOnT5UBsqj9iupjP59Y6I8au33HXe1yHIN242lXtq+uyhlHvch5zFz60cKptvSln/zUZXxkbxLa5ScybrWlX8ZOO/GVKydjpw3ZuEC9SJ1cZHKZT32OTx9kxq4ObsZhsR/3v6AFJiOIMoFNQvv7tLNnseedvWOucMzOj3119HOx32KLLdoKK6zQ3vCGN/Q7eP6OPfbYXrfrrrv2/Ysvvrhtuumm7eijj25Tp05t5557bv9I/Q//8A/t5z//eZsxY0Zvr7lB7Q/p/aB1rJPJvjnkGUOZVnvGSnvNkf4JdPK0176x7MvJdig/cvrKyYuENuXUDSHjVWAf0gNt1JC1GtN6RdrhZ6vdOAnjIMsFjjnrT25F+qqzTv3SZj9jItNaZ9YrXwzx0CP7ask+sjzzIdMO1Sa39tVlzcZKu7r0k69svyJjZD91yoBa6hiyVbZvPerUL9HPJYhagEUhk4zXCr9PH9AyHsdbF4c6wfKcF9pc7L/97W/3H6CefPLJff/BBx9sm2++eb+T32WXXXpd/s2aNaudcMIJ7Z3vfGf7p3/6p/azn/2sTZ8+vb3rXe/q43oscv5rPXLEEEc5ufbliNTRGis52oR9WvjJq/GqLKxtaHzIjktexk3oqy37IMejTtkYjkF7hTUg61P7clM2bupE1SVvSLZfddZWAW9oXPRzPFWX85X1JwfAoQ+MkzLQJ/v6VllOBbasKf0AtrHs6lN2XGkb8nG8jhNZnjnlpk1ucswJtGtLTvblZ73j/iG0LNwgyjkw9L9v7+z9Nk6OWTjZTi7zIFc9izIfzOYfr2Zuuummtv322/e7FebMd/jXXXddO+SQQ9qRRx7ZLrzwwl7H6xxe61xwwQVt9uzZ/Yey3Hh4P28tmReM0lujtctLfm3lCvR5zLHLUZ+cOi/62YqaZ0ivbM6sA9BXl370RfWpcoIYHCNk/UD1G/JNXbWP5WPd9mnR2a+gLtrKqXx5yhlfPSCONWiXYw7969zYivTHlnmNJ0edSF31H6ox26H6qw8wZuqMkbIxUq+f8pC96slfdWmjrTb6otrHsoFxv7OvAWpRaf9/vdjzbZUn5jzZnnpqvmL+39wnn2qPzXpifm/sv8dmzW2z5j45v7fwb1K32DOeofECDxp2dcq0XAh8XfLMM8/s41100UX9N2ZYrP/t3/6tf8QiHjcUvk7JHx/Yrrbaav2HuG9961v71zZ33XVX++d//ud28MEH9+PlRvHud7+7rbPOOv3B9ANa4pGXuohr3bbURVuhHTiOqh/qZzxsNY5tQrvwgrCfnOpj3zy1HuPogz39q60CvfVUv4w9VG/60CZqvKqzn77I6OSlXtmalSsnfdXRynXcyGwesGW89KGtyJqzVuOAobrSPsSpNlps5rNvKyf7GTO5T4eMU1vjmi99bM2LnBxrT7uy8XxzkHY5iRrX2KmTx9ow7q9eAosyUEIdi+P/i9c4fLg5a/ac9vCjM9qDjzzeZnRy/k2fNaddc9cjXTu3lfvAIn8zZs9tNz8wvU2Z8Zs3hkllZ5/jdJLt09b3oey8+QdTLvZ8KPuSl7yk1+dBzMUeLv/YCmy55Zb94n733Xe3v/mbv2nveMc7Fny/ng92P/axj/U6XvN84AMfaB/60If61z0epwrrrcfROrQnHAuycWofmZhiiCNqbflqDJgPqDcufWuUox1djZP+tHKAPvLVK6df2olba1DO2hPJHfKtOvUi++Y3V459lA7YB+YYGp/QJp8281af2q/+1afa1A/loM1agWPK88cWyJen3fiZI2sdZcv88GrfHEO6GtM+dlpigfTJVq59MCo/LXOiD5tANobjeo0DMrhyFgL+Xy32c+bMbQ8/NrM98PDj7cEO0x6f1Z6M7f3sbqd+y4OPd5je5nS7/FF/Dz02qz0yY/Yivv5NisWeMTrOOn7noHI4ILzG4R9G8bfTTjv131bSVz45dt99957DVyv5Dv5tt93WHyDAh7XwyMNN4c4771zAvfXWW/ud/kMPPdRuvPHG9olPfKLf4VsXINfQyaRNvTb08POESp5+wjz6Z6yU7Rtf2xCMiY911BuDen3U20/IHfLJXNW/9vE3hjZ9k08LTxnAM4a86iPkJNc65dpPvUgebdainHbb1Ivkg5ovudrspz312oidSH7KaR/iZIzkZp1ybWsMZVDHUKFN+xBfWT2cseqhZrnWnxygvzp9lIF5kMf9bRwLyKSJ1P+/eo3Dzp4Fn909eKKT63L9RLcrvv/RmW1u1y7JH9/G8Xv2OX5lJ9qJdaLhsDBhY2fPYs3izbdoePUixxj8Bg67eDj8K9hf/epXfXv11Vf3r27g8ErIfJ///Ofb2Wef3S/ycME111zTvvnNb/avh/hKpjls8bdWc9umLvXkQ07ATcjTVxjDFk7yjKUt+dqUq84YNV7qc76qXWBPTo4JmFdOyrS1HvVy1SHLxZ6cyhvlr2wfENNdXNqTY7xqQ49fjsGY9pMvUkc7FF+kn0Bfc8onVh1/9cFOm3p5qU8ZVD+RurSZb6jWOubk1nrkZH799XOtQPY61S7HGNkCbSnTKi/Rv6DNABSQu6y0s9iz6Pw+/PEvaMd6jZMyrQdUnnJCvfDAIXtwMzZw4Uof+3DrsaA1Lsh4tgl08m0zDnJyqj115ko/IQ+OfrW25GV/LFvWkDKo/tZlXu1DPsB4cvHTBobqzxrUKadeOXXAGlOXeUfNWcpD/VqXcurUKwt9aUGdP9rUqUfnYiZPvbGSPyQn5JsrF0qALEd91oUs1MnTl7bGEcZIvbrKk5N8WnMM2RPoBP30q/WrlyeHxX5cr3EygbJ92iyCxXG8r3H4MHXWE3PHfN1S/3jrAh8MvIH5zb+OM33aY+2xqdPak3PnzleO/ec/qmJsCcZJy7iFem05L7Qs2GkHzJ9zSJ93+fD4UFeZVq7+QBvc5CcnY6d/lbHbT3vq6zhp6Vd+2rOvTjmRPlVnXnWAfMB6BOPX7g1QWGP1MVbqzJVcdWPZBX3zjeKmjr41pP+QbVRNGSt1+OpffZMLmDP5Ap1ziX/OcebMWMjY00aftvrUvjxgPfbhVT6Qoz1t6OTLS37lJcwFv7b4aB9C1mlfmFObsVJvLmFOkX41RnJ5jTzuH0IzacomsQXjeY3De3Jev0x5dEa7/+Hp7eHpMwffnQ/9zer8Jt/3WLv6rkf7D2Gf7m/uE3Paz04/r53/nTO6Bf+R+dqx//IfVYk8COrs59ykPpH6IX+BvuaSo15/8+rDRZK6bEXqlb2QU2cc9crkAUPc9BHy9KFGbVlrcuoYhmoZ4qddG2210SrXPi3xQOoynmOwn3ForccWjv5ys+aUk5vQnjz0+Ap5HE/6NZa+yrZw0pb10K/2lO2nT8pAjnxrHaqt+gDjyc1ziL5xkqO96tJWeeqANaYu847KmfJQP+cm9Qn1o3xpQdYgX/m3WuwNZAJaAIf+4v6jKt65P/b4rH6Rvw9Mnd4eeOTxNrN8q2bU36w5T7aLbpvSzrz+/jZl+thfseT28cAjj7brr72u3TB5cnv88cfnGUb8ebup/4KW1jE7H/WEE/SdG/vVnrJ9W/3UOb9yvZDlJE+OMq1y5dkfagVcWsY6ZLdvzY4745kvObQiY+qvXn/rSKRObvrrp02u/LSrrz6AeHmsgTFSpjW3oC/P2tIv+eYG9GtOkMfeGBWpr9xsleWkXTnrqbUPcavd8dlSPzKQLzf59hO1zlGQ4/zpV8/hbOVVXcLatGet1UeeueFWG6CPrcZKu22V0w+Qy3zYl/g1jm0Gzz72xX2Nwwb+8VlPtIe6Xb1gh//YzOFvxgz98Qrnzqkz+2/cjPoj0tTpj7dzb7ipnX71Ne3MbsH/5X33tyfGeJXj1zgPP+qottaId/ZOqHBXLAfkvHgSKdu3laevXPupJy5txrSfPNqhXPgjUzMc+xnH2pXtGzu5o/r6IWctcrSBuoDJST+51S5nLDsXuWOQoywn9SCPqfq0K+cYE+iowz4yGKpDnfysP9v0paVv/syV8dTLk6NsLnnI9uXUvHLSv9pp9RPWADKmIJbxEvJs61hA1l/blOUltGdc/aqPuuSnLmXHk/pRa4U6+E8nA31rP+d13Dt7gxFkaDKUKWY8P4TGQswOv4I/Xt/PmftUtyg/1WZ3mNnt5Gc88WTfz1sBMu/8R/3NnjO3XfXru9oFN97cLr71tvbLe+9r90x9uM2YOXPku/vpM2Y3LN88/KgFH9AOjTfnAzB+oD152tGpp28MdLbAWPrQ4lP96KePfXnZqs+c7nTkqJcP1NU42lKXHEEfJDfl5FU566n5UwcP0E+drePM2EJfbYAY2pX1kwP0S3/zg1E69UNttedulDy0Q5BjvdYEcjzJV5/16aeOfurU26IH+qePdvUZI/2HeLRyjJX9jIUM8jjLAcYE+qijTXvKxMj42Oq4bNOv2t1syMu6k2s+dUAuNoHeFps3EPvIgJ39e9/73vG9xjEZAZBNZlD1v6vv2d8+ZWY77vIH2gEX3tP2uuCetsNZd7SNv3tbO/nK+7sngtnzWU//N2fuk+26u+/rF/ub7rmvPfb4491CP6PNntUt9iO+kulif9gR3c5+/m/jOLGJHH/VVZuyfeMN2Z1v5zl56pInJ/vmp68vOvPaV5aTPuoyhi0wx5Ct6iovZeLkguY45KhXrvXQRzaG46I1lhz5Q35Ce+UrO+709WLGLkee3CGdQE+rPmsQ+iW3+o0lZ25rpMVmPnTyhmpwnKlPXsYxBjI2+gK9/pkz++lj3IQxbDMGOvXq5BjbvvEcG/qhfACb7RBqfHW0GUO9fWtNHqjx1Cs7TnXJQT/uf0GbwfKkNngm+F19z/6SXz3WPvLtm9vf7H9d+4eDrm9/f+D1bYO9rmm7/+iO9sj0WfNZi/fHzeHnN9/aLrzprvaTm6e0n906pd0z5bFuZz9n3vuk8peL/dprL/yevfPgXNB6IOqcyAHoha8rEsnPeBkTuebGlq0+yOQxF/1ExkdOaJfL8aYljrGwI/MtIHLQz1j6KtO686gx1NEnhrJ29bVW/BxjxtOGjI82dUCdPsI8yUv/2tffOdA+ytcxaDefHPTJV6aVJ9IvdeqJVesQ9PO4AXnJNVby7Cc3W3PSr2tF8kTqhbWnDk4dj6212U+eqHza9NXHNu3q1S1OHTWOduWMl7whmTbPc9qMpUzMrAEs0WJvUIMIkyv/rhb76+55vG122q/ae46+qX3shFvaRqfe3j538u3t25fe2x55fByL/WNT2txfXtom//jstsUJV7a3HnFje8thN7aNT72tXX3Z1Z3t8vbUw/cvsugvutivvWAyHaMYGr+tPgl+2viv//qv+5Y+X5fMgw5qLABHyENOXrbAg64eqEueSDt9LtS0UStQB4+xAGNm3IwFiOe4gfw6DmX9k1PtxDOmtqfzqXlStm9udYKYaYNLfn7KQj06eOZ3HpGFduOiU06gJ6ZcedlW2RpSn/VgdxHGjj5l/dQZI1sgV2hHj5x1JCdzVHuFcYB+9rWbL/vKtBXGTJ8qZ0xzoRvyy37aR3HSZqufOhd2QT8Xe5FjVaYV6Fnsx/UBrcFNLiwyJ+R39Z+X8G5+yuNz2v2PPdEenD6nl3tMn9lmLs4PnHWL95xbrmwzTv5Gm/2jo9u0C09qPz//J23zk29qf3fQDe2Nh0xuex93YbvzjOPa7JN2a09c99PW5r/Dnz7ziXnv7LvFfs3u5uXkOe4cs/3UOS/4cJA222yz/gfQ+Je0/JrlpEmT+h9D46eK2R3rX2MZI/X0c75tlcn39re/vf9PyPmPzjnYcoxBHyCbx37K8uTYmoMx8B+jO46swxjcIP7xH/+x/5kH/gtGuOhFcm2HbIIaiPnmN7+5j3nggQf2vwuU3Dom+si2KVuv8bN+xpn2KrPQ819Ickz5l8vUZe7kGg+51iYva0vf9Fdnmz4AP32yDnUcI349lf+kfuutt+7rx24+4yoTo9ZrP+X0FepE+qkzb94Q05465ayp5gejxlKhLcePzrhAXcr6INum3lii1ihfMPZR3ET6pC5rzXHIGfcHtBZhkJQr/rP/p6o5c55os2Y//WL/5P13tBmn7t2euOmS9uS0h9oTj01rT858vE29/8E2+dJr2s033tbumzy5zbrvzn7n//j3D26PXPeL7obS3VymzWx8H+fQIxcu9oytjjknGpuy84XMgsGCwO/Sf/GLX+wvts985jPtqKOO6n8KgcWPRYIcubhUEE/O0NxjA/w8Awf3uOOO6y9ofghJm1z8jUffmOqAMjYWCWLxn6LzH6Tzcwx/93d/1/8qJ+B/zdInc9CiZ1HBDy5PAugZNzeKj3zkIwvy0KYvuqq3LuKwwBKT/8VLjq3+ykPncHLwS2hHto6Mp50frOOH6KgnY8kzHjI15K5aDjKQCzyXtGmnNa7+KYOMJZ+W48h8Teo2G/y8NjmoOXk5T8Ja5IHMlXL6q0tOgni0NSd9oH2UP9AGV9A3ZnKUQdrVq6OtfrUekXEyv/b0t69f6lOnnK165cyTffjGAeN+jVOTGVA9cKC/qw9oR/3NnD17cLGf3e32p9336zbnzovb7OtPbrN+enCbecGh7aknZsyzP/Fke/zeX7cpk69uU26/rc2e/mi3hX+kte4m8NSj97WZPzm0Pfqjr7dHLziyTT3x6Dbjsqvbgfse2NZ++csXjJnWcQJ0eWfOuVBmIefC4jv7TDqvhbjoWPi5AWy88cb9AcFn1GJh63yrs55ciMjH4kO+L3/5y/2n8fC8qPWjdvsZC5k2ZeploScmizS7BfQs+txcjGEcAce8xGCc1sk3BPg5Z2589B1D5tVfH23OObmpBTlzJtTn+WoLjKlcfbUlN1vGlf89ZNoS6OTIA+aoY5ejHdl5ME76iIyhvzrODW6QPGXyW0zMSc6tfPo5XwBZ5A0LpAySj63Gsp7katNPWX/61ii38tNmzsrXZkxhjJRp5SHXvjnSnvqsF52+Ce1DcQT66qu+ysIauP6X6IfQTGgg5Jp0SX4uYdQf38N/ovzO/NBiP3fOk23qL69oD/xo3zbzot3bjHO+3KZ/96Pt8TO/0ObceEp7Yuaj7drrJrerLrui7b/zbu2sM89t9055tE2f/WSbc8+tbdbP9+t29p9s00/7cHv85I907abt8RP3bXt/6tNt7fXW78eV48xxOxccNFtl7Mgu9u9///v7hYFFj58n5n+uYrHnZ4nZ/e+22279f2LC/PHqBx6vQHglg47XBbwK4T8jMDYXK+/keKXC0wIX8le+8pX+lRH/CxbH46Mf/Wjbe++9+5wsTiySXPT80iY3BGKhY3fKqxFyAX7j6HOf+1y/0PO/a51yyin9rpD/VYuauWGRi7h77rlnn484jJ1x+qrnC1/4Qv9KifExHhYaav3ud7/b//4QT4LE5D9R50blzYQTlfnhtQNjNDZgweFG4dMGNmLztMQcEJP/6pFdP4tcHg9a5pZ6yc+8MhfwqZEbkYv42972tv4/k3H+qYW5w04cfpSOunlio27+60nGQiz8qAU7Fxw1crycA2zEZI54cmIOiU1czitAvbT8iB52niSIw5h4fcVx5fjyrbHPfvaz/flD7AMOOKCPTQ3Mvzdmdvbo+c/vjU++xJAOOPcCnrJ2ucS2HbLrB+DITx9tqcva6NNahzc/+8kT6sxZ447iGVNu8qqv+qojTurxy1jmwV65tso1pzJ+9gHn5Lj/W0KD1VYYnJ0rJ/Hv4o+fLeY3c/Jv1tBiP+2e9thPD2iPntYt2N/bsFvoP9ymn/TuNuP7G7a5t/+wzZr5eLv2mhvbj8/5cdtzs53aqUef2K689Jp2x90Ptik33dx+ffy27cFj3tUe/+572/RT/qM9ftbn2pM/3qV988sfaWuu+6oFB8UxeyDUibRp5wTcYYcd+kXyfe97Xz/5LGJcmPzn4ixYLFYsJt///vf7i5XFhv+shPfSLLhcuB/84Af736vfZ599+vmFQ2yeFuTw88b8vj0LFj+r/KUvfam99KUv7S92FmsWZy54LnwWVRY6FjkWDhZ6ZHQs3tyYiEOdnCy8cuGGxaLNAogPixqLNn3GiMxYsPGh5XbbbdfrWMCw82qJVz4sWJtsskn/ZAOHXOTEzn/Kzisia2RhYuH0QrBlsWdR44ZJPOaLuWFBZK54PcQi+qY3valfmPHxPOUYMDc8WfB/DLAAEov/0J1jsuGGG/b/MTxPMdw0ick8UyM3W24o3MioAX/GwRxwA+Hmw39DyU2BRZj5Ylz8vDV8auBGjg9zwhg5PuYmZz1/eA3GeYGd48vcMKZPfepT/f9rwA2H48yN+5xzzunPB441XBZ1OHDx46bEGNATl/jOi3MEkK0DyKlI3+wPtcI8zke123fhUlbvvNBXb5tIX2ON4ijnHMjRV7tjTX/5aR/lA6wpdcZImTbz25dX49iXy1oz7n9BOzRA9Wn7Xb7GGVrs73vs1+2Bx+6a3+v+nup257++qM0464vdYv2BbrF+b3v8lH9vs87+XHv48u+0n5/2vXbcbge2gzbfpR242c5t3423bwd9ede2/6Y7tQO32LWdsPXu7RebbNEe2m/DNuvUzv+77+/wodYu/FI7Yvv3tTXWWbjYO86cTOcDm/rUsfCxs5/ULfYsmuy0WVzYefLh4hvf+MZ+oWBR4yJkoeOGSfv1r3+9X9i5QFlIWKRYTFlAscFhcWSBZoGDww7v05/+dDv99NP73eDqq6/e91lwWBTc4bEQuJBy0WFjAfKGRCx27yzOnDAs7BxXFm4WQj4LYAFjHOxUWdjIweLGzzizGMLnSYG5YOfKzYKbALFZ1PjP1vk/eamJeWIHzELFAkgOamLe4JCPOM4rNbO4MRfcFPHhyYObJ/USEz0LGscDH1oWCcZI3G222abvUy9xmQtuAOyYOS4s2CzsPB2Qn5g8VTHfHFPmhpsEfeaFcTFe/jN5bhj08XHuOHZceNTsDYxjzX8mz9MbNTEO6hTUx1iZa+aPeeX4sNhzc+dmx9MXn5VxE+GmwRMLflyL1EU+bljUwrlELur2A1ryMP7Mq54WYHchAUM+Ql8AR56xtFXUePpmjOQM6bO+5CS0CWuqtdVxas8YKTs+gY4YQzlTPxRvrDFU3yGd/lwL43pnT+EGtYBMpEzLSfefsdjzzcjZc2a3q+79cbvhwV+0uU/O+/36p+bMbLNvOKU9dtpH2/ST39dmsjv/7sfbFYdv347e7mvtoC2+1r6z35HtZ2ed3yZffm27/YZb2i3X3diuu+TKdsGpZ7Vjv7p/O+hjm7fvfOKz7ea9PtYeP+n97fFT39va2R9ph23xr23NVyz6/7zSOrFOqDb7tlxwLGLsXlkAuOi40FhQWABYTF14WdTRsajkYsxF7s6UWORioefxnMWM3ayvR/CDw4LCwsArBXZ8LIAsxOwg3dkbn9dHLDYsBtx8qN085BUsYtTIYkQMTiJuNCz21OENjB0oOdmt+06epwYWVmpigSQ+iyaLPTci5oqaWKyokycYblKMnScKdu3WBFwAWbBc7AH5WXjZMRPTD6cZk8eEsXAThMei7k2Emws3KhZPbgYu6uSgNuLgy8LPnAOOH3MMj/G72DNPLsrEZ1zE5WmMBXpSt6jTYncsPOkQh2NHnV5ztCzKLvYcN+phPj75yU/2c8jTlzt7YnDj94bATYunDTYSHDeegngKZFzMCfGBc0RO8lsDbersJ+RV+yhd2tRbhzZlj5tytoJ++idSl7lTV/WpMy7gWCWPvNaHXf0QJ3Xq6ae/tgrsFeiNW3MkOCfHtdgbvLZDCX5X37PnLxf7bm1vtz94ezvvthPbT+/8Xvv1lDvb4090+m7Jf+LmH7RHT/qPNut7H2yPnLN9O++AXdtBX9yqW+SPajdcfl17ZOrDC35iYcbshf/6ln9d++D9D7Yrfn5FO/or+7dDPv6Fdvmh27THzvxia2e+tx22+ZvaGvMX+xxjnQsPGH3hweeiZBfIIsajM68XuNBZKNyBsoAyZ+z26AMuam6a+BKPE82FgQWai5ddGu9sWXRZsLFzgePLIlgXe3aAGd+bCbWwePHag523tXuCMwbf5VMr/ixi+FI3u0d05PMVB2PlhkQ84GKPTI0sfCyALvbkYQzEY+EjBv4slCxczAHzTE3452LPjhk7LWNkrNxUWdS5uRDbY4IvMRm7iyJ6dvfcDFksuVGx2BMbLuMnBoulN0bmnRus7/2ZA46n88T8cqGhg+NNhGNPbp6EqMWbGLknzd/ZU0+eTx5zd/bMNb7EYrHn+HKcmX9eO1E/tcKhRm7A3DTxY7Hn6YnXT8RlXKPOXfVZj3rgIpM2Y1Td0FqhjTqyn3rarKdyaK3BempNgn4i9bWtHGMO8ZCH5ijtykN9fFNfW2V5icqxtR7Ov3G/s88JNWBOrPhdLvaPzl/s+RnkGTOfbD+45Idt/7P3aidef2S74p4r2pQHH20zHpnR5t57TZt71YFt+jUntB8f2+2eN9u1/fDkM9vDUx6eH2neHz+PwH/jN336b/5w2r13399O2O9b7cBNdmiXn3p0a5OPbN/c7n1tzXXmfdMC5ElXJzgPds6Jiz0XKrs2XuOwCHiRc1HySoM546LkggS82mGHyK6dC1JwAbDQsNizm2Xh4UL2gzsWL94t8yTBQsUiwA6QBZCdK7kBO1FqYsFmQWD3x+LqAkBtLkb0faXEIkYOTiIWIOomFq8jPvzhD7dDDz20f/dPfdyEyMWCy+JCPnb5xGVBYgHkXTLzxPwRl6cbxseiyZMGCzK5nFu57HZZRFncmCtiUgNzwI6d/LzjZo7Q6QfPHTwLLjctxoeNJzDmidp8OuLYMQbsxGFnzw2NGln43U1zo4HHPDEnzhM6jgOLMos9N3tkXlFhox7iMO5JZbEXHBPmDz+fIDhHWOR5euKGyRM1iz1jZlzYqZfzgnnk+JKLc5P54mmJuObyuq59a0g5dZUD9CW+thovoS3t6NKHukDlaFMHaqxqBzVO+lTZ1nzaBbqEtdqvPG3oMma2VS/op1/laJfDufJb7ewJkkEF9t/lt3EenTGn/79kZ8x9qt10911t/9OPbFscuX075uCt2rU7b9bu3GLrdteWW7f7t92yPTzpoHbl977f9t9qj3bOCae3qQ9Pa9NnPL7gh9X4e+KJJ9pZZ57Z7ror3vl3f3PndjeU7kZw7z33tWP3PLQdvtN+7a6bJrdDD9q7rbX2yxcZ/1hwHjzJOagslrxWYOFgEWEBSC4XpTt7FnvsLrYsCHywykXNQcPmh3Ls6ojPAkWfBd2FizgXXHBBv0PmeLiwcuPwgucdOt+GYZGhHhZIFg52y3DIh44bEbXAc2H1nT3fxKFudrX02XXydMCNhsWWxY1YLPa5s2cRYrFh8aJGOMwDtbNwsThRW75qyDmmz2LvO3sWND6IdQGlPnyZOxZhYjvfxODmxu6WPDzVrLbaav0cMX7mye/+++EmNzFiciz9YBc+xxmOiz03JRb7fAKiHm5KjJUbF3PFzp4nD+rgdRULOB/OT+oWe1/jCOaElppYyDlu3oC5qZ511ln9OcFx5qbCB7TcZJlT6uEVD5/FcIOjHsbLOcOThO/snRfnaAgeB5H8IXmUvepyLRkVp+YD6PBFL+SBjAu0ZyxbuKL6w88Y8jNGlRcHxgFZk2tHjUdfnb5pT71cwJox7sXeIDl4+2n/XSz2LM8zpk/rdu53tUe6Iqded2s79fTj2rbHfrUdsdUn21Wf+ni7f/8D2rSzzm7TzjuvTT35lHbfLl9vl3z8s+2M3fdvjzwyrY/B79bnYj979ux2fLdzY3eff3PmdDeV+a93brnul+3QrXdr5570o7bfQYd3F/naC8YI6sEHzoN65wIbFyaLIguErw3SjwuQBXVSd6Fz8WJHz8UKhwWNDx7ZSfKBoTt0LnY47Fx5BYM/LRx2+yyWLES8nnBRYhFmgYPHIkkfLrGok5sKixtPCnxYSkxeZ1Ajr0cYA37EYgFnXHC4AcBhDviq5LnnntvHZRzEhssNj0UHGS5zxFMAOhY+FmzGzs2AXT2LHx9ysmA5l8SnJSb+3EDw53UWNxo+nHQOuLFw42Ds8j0u5OFzARZgeMw7OblxARZybl4shtTNTYOdMXPHws6NlhsWsbAzjyzY1MrNDg6LNnkA80UMP4xmLuHwpMQ88fqOGrgJcAOgXmI7XlrmhZs4cajDpzuOMws6O3vOFc4P7LyX5zhyg+YJjCcSamGeuCEwTmIS23lxjsyZtgR2UPXa9Kn+jkuYTzn1+FpH5pJX9YC+uhpX2xC00wJic96M8q/9rCXrBuiG+OqrHdmcFcZO7hC0wx/3zt7iMlEmzkS/i9c4LM+P3DW5Tb34kPbYTRe1GT+/qB357b3bPjt+rk3+wufa9ONObNPOv6A9eMgh7YG992lTTjq5TfvRj9o9X9ml3fm1r/MvrOYFKn8s6Cd2Cxb/sfeov7ndk8Q5x323HbvTgW3rz2/R1l1v3iO843WcHBBPCPvKIOeJxZxXK+yq6MPVziLLYzyP3iysuTCxmBOLxYEdMAspCzIcbbTsFuGws/Mrd+zKfSXg6wd2/+xM2QGzU2THyvs86yAWCxK54JGLBQEbtbP48h6cxY5Fm3FRN7I18YEgiyyLnXPGPNHH390k42O83LjIR3z8eRXDosYixTjQwTUWQGbsLFzMK/n5ZpLzBKjBMemXxwWZRR0u80YsXoPwKosbD+NhYWb8zCnzwdiZH+aT2IyLOaYG8uPDmJhbjil1oiM2Y/eVEjG52RCT3OzMObbkpi5iW6stsbipMS5qpiZycQx5quDJg/rZaGmnXmL79VPiUifnAecH9Tsf5hI530P27CfHY1N1yvpUDn2vC+3GqoDDvBoXXXLVjYqLPNSvPPq0xM74ta5aR/aBcUb1zY+cseVhM642dNhB5ko+7bgXe5wMaHATZ0G0v6vXOI88dE975NaftYtOP74dd+Ae7eDDtms/+dIH2oxvHd6mn/vDds8227Z7d9y5PdDtQO/e+EvtwaOO7hf8B7fbts287LJFdvT+LVjsb799vmb475fXTG7f3uWg9sm3f6Ct9+qF/5An50CdeuelAjuLBjtFFwh0HjzBIsAFORSTHSNgl87By9hw8MOODZCPlnzWigyHOpJDayzqYPdnPuxcVNho6eMPBy558Uc2Bjx8GY+5sVmjPECcjEnL4smrFHbtGTehjpj404eLbN1Af1qQvtTHucprlBe+8IX9gsjO2s9I4HGsHHfOiXUAxp/jIq7zIwcdfsRCD5/cfJ6y6qqr9jc6njJ4eiCOPP0F483jQ276Hls/P+DDbzZd8vAjLiAuteBLTPUi8+U5nX1i0Hp8hfohvpy0ZyuMIT95KVdO5hByOI5ed+oT6NLfuoe4YFQuUPXabEHOawIOsT3/kofevFlfxleWT59jzUZriXb2JEoZYLe/uP8tYf7NffLJ9tiM2e3RGbO6dlb/weyUx2a3W++d1r7ytT3aO9/zrrbDZz/YLtl4w3b7t49qt3SL/4O7bdmmnXdye+zKi9uUbx/f7tlyyzb11FPbQ90j7CPdhfPUiP+Y5OTukfv2G29k5Z/3fc6Bv6lTHm4/+Obx7SP/8s5+sXecTqRw3Annps5XHiha7cawb5u+6tOmLmuznz60tc7UIydf2ZjVN/twh/KnverUZ5+YvN/nlQivkXjv7WsHY+iTLXGzTdT46mhZHHm64RUKTxG8juKVCq9/eEpicdaH2MJ4XIwZz/zakZ0nZIEfr2l4muG1Dbn5LIS8vMrKp6EazxzWIY8+MjdKPsRl/njaYgz6C8dkHxmwEBInY8uTg2wN2OVoS6iXry8tfvYTNY4xlKu+xgPqEkPxjZH9IVvqHW9tjV3HpY/+QzC+bcaiTaAznjrjZM5q52b/O3mNoy6LW5LXOPxvUvxftPdOfazd12N6e3DajHbWD8/v30fyOP/hd7yr7fSRj7bT9z+g3bTTdu2REw9vj151fpv2ix+3xy6/st3XnehTjjqqTTn6W21qd+E+NWfh/2XLt3DuuOPX7ZJLL22Hdo/Kv+ieAOYOfCPHv9lznmrnnnBG++A/v6Ot3y32eTE45pSdA3Ui+/KGfEH2axyADsjJ+a98ucjw4MitSB852RfqaYlpXCCXVnv6qrevH7JxOCF5DcGOnp0uJ6nc6qOcuoxV9cjWAFjseRXFzYV8fGDJqw9es3CDgWssY+QY00bf2PS11VoAiz2vd3gVw7d8+LDV3Lw6coHOfACdO1PtySEXu3fmkOuF1z3uDpOfMrD2BPpaO/oaR6hTj2/lVF3ys59669FuTXKwoVOf/OSiS39hnOTTGmOIl7pqwxfZtUK9dSXPPPqD7FtP1aNTX+321QF0XEfj2tkbzAAGVS8okg+KlmSx5z8b5z8eZ9FHnjp9djvwwEPaB9733vaed727ffQzH217fPA/2rXfObE9eOhh7Z4vbdamnnZ6m3b++e3+b+zV7ukW+2nnnNMe2GPP9ki3w8+dPYv9XXfd3S67+OK2V/eYfkJ3Q/j5z37WLu0W/yuvvKLdfffd/a9p8jd7xqNtxqP3tyuOOa599h/f0tbbYN6rEMfNwRxa/D2A8mjTnlBHK+QaJ31t08cTAiQ/uXBA6mlrbHXVLsdYtPJE8pKfOdJW+cb1NQ+vqnz9lDH0AzV2jeWYq1/yeY1BLnKyKwbUUP2UzWk7ZEs/YD0JdOQm39PlBsROnWMDGZc+NwtiMn/qaltl+yLHglzH65jUgayRVt/K0waIk6jczF391CknF6iXZy1AfeoSNedQ7KwBaJOrLtcKOfonzzzKQp+UzZFxhnz1GfdrnExIYGWRCZbknf1vLPbdrn7Ko7Pa9ttu3972L29u73rr29rndvhCO2fjj7VH99qrTe8W6gcOOKDdu+VW7f7ttu8X+ofPPLM9fOop7b4ttmyzbrll8J39nPvvbycfe2z7Wed/5VVXtUsvuaRf8K+44vI2dcqUjvFUe/yuq9q0W85tU793fNvtvR9o63Q7e8bFxNI6sQnnBNCXa58WXfoIeXLVVXnIHxu56wllPHx85aCeVq79RHKUaZNrLUNcY2eOUb7IQy2+Qq59ZGOJyiNOxpSjL23GUU4/Y1YOLRzjCW3oRdozrrqhuMjZah/ipp22glwZB1Ru2pH1STn94GpXn0CXsSon7fZTn/YhW/pZS53THG9iaGxAu3La1JmLVmgb4mY82lH55CZfOTHESV3Vq2OxH9c/qtLZAQr1JmBAv+1i/8DDj/e/J3/znXe1nfbYo33oE59uH/vk59tGu23Zdt9zk/bTT324PbLvfm36uee1qSed1KZ++7g27axz2qMnn9Ie7B6Np51y6m+8i2eXP+eBB9rsbrG/645ftdlPLPpDag89NKWfjPbknDbjjp+3+yaf0bU3tEO++tW2drf7c3yO1XnwANKqV05dzpE6WvQiuSA5+plPvfzUaxMZE8hBnznkZUwxyled9sqvwGYM+rTq6Gc92lOXrbAO9eZXpqWPXLlCXeYyTnKVjZO5AP3MKbSnPnXqq856lLP+tCVHOWtDX2sF9Nko2E8ObfqnTr027Tn2zCk/25priJt686QuechCXuqRqx9jp7V+9XKANmPKoSUekJt+yPjoZ2456PW1zRz2lYH+xk0/7bbaeNIb92KvswlNWnVL+s6exf7+Dg88OrNvT/3pGW23k77TvnrCD9tu37mwfe3kk9sXD9ux7bL9J9u5n/lwu23rLdvUw49s0475drtv773apR/8UPvFFtu36Q8t+q9mWeifuO++frEf9YHsgr8nn2gz753crpt8Zrt92m3twEMObmuvtXY/LsYpctzMS9rt22pL2b6t3DqfNbayLfy0V2AD8ORmP3n25WRN6tInucjJ0y6/zknVyRdZS9VljNSnzrjqfPLRlv0KfbI1ViLjpz7jDCFto7hZK3CMlZtjoE8LF+inLNdY8utTobK89KkwRu3X+jNe6qqPiy+gL9QRAyjrn/mGatVfLi369BvCkH/2lWmtSx9hPZlXqLPVri7HkrzUqR+y0bKzH/dXLw1MAaIGB+Ne7LsFmI9SH3h0Rr/g33v7fe2S665uX/vON9qup53aDvzpTe2wS+5sh19yV9t20hHtE/tu0nbcf6t2+Nafbid+5gPte5//cPvOlh9v+2z8mbbfl3dp11527by4/s2Z0+Y89NDTL/T8PTWnze4W+yuvPbnd9ODV7YADD+i/9+3Ycpwp21c31CoDD07qlZOXev2Ukzek80RRtg88dp4gIH3zxKnHGdT6kY2fvqD6pt7YcpQzp+0oLrJ9awBDNcmhnzCOfLlCTnKVM6fQT6RuFI++tdlPfvKU5aat1lO56JDljmXTP1t9hDbl7MMVlWtfHXmzjorqY31pz361A/PINWb1lTeqPwoZK+XsV91Qq5xQn7ZRvOwv0WJvEFonMvsGH+9rnMenPNIevO3udv/Ux9qvL7mhXX/aue2Q7xzStpm0c/vKyce13c88v339eye3fc+5sO3x/fPbpgfv1jY5ZKv2pSO2a58/dKu2ydE7tc2P37VtefAObceNN2vH73lom/bItPbkU0/+xr+gHfXHzyjwO/lPdYv9rPtuaJMnn9HuePiWfrFfa821FoxfeGJm3/Grt69M6zwl3xhi1EmqX9XT5vyL5IzSG896si+v1jNWHGCsiqE46uTgm/7Jl5etXOM4D1Vf/WjlAX3lyxnaaaZ9SJZX/ZIDzCdHu37Jz7oSyc36U5/IujImfWWgzdrV62u/YihO5hmqL/s5D5WrLAd7cq1TXfXNePrm2JJjDtr0S19hjMpTxp55jJ2+1YeWePoO2eVUWa68cb/GcYAZLAegHh2LPb87Mtbf3Bkz2+yHHunaWe2uS65tv9j/uHbbxde3G/Y7of1090Pa1w7fpW162Nbty4fv1XY99btth+P2adsctVPb+5yftB2+fUz70v6btW26RX7j/TdvG+23Wdv2W1/psc1Xt2i7f36Ldt5JP2iPTJvWHu0GuDiL/axZs9qsuXPaPXfc0e65+iftmsmntZsfur7tf8D+/WLvmB1rPQg56fK0qwf1gIziycl5Byw+aRs6Lsr62K95hmpRTl3yaBNps5YhXtVln7rUJVJX7fTNNzQu+lmPvKE4qUsZf2NXm31gXO3pk/3kCHJUvXK+XkEndyh+2tNGv+rk17oSmYs2fUHNpV9F+qU+42ivsUb15aqvdoEu60yuee0nX39gjfIS+sChzVzasi9qDmMoy6k8IC9rol9leNY17p29CWiHYDISLM5rnJl3P9juO/nH7aHzr2zXHXZKO3ujr7Wr9jymXb/zYe3SbfZpXzt4x/bpfb7UvnzEwe0rJx3Xtj9mz7bV4Vu33U//Xtv6qG+2L+67Sdtu0lfapgdt1T6zx0Zt4/02b1scsX3b9oid2g47bt72+sJW7fyTz2jTpk6bn3HhHws7X8Wsf/feeW87aZ+D28XfPrTdeNOZ7faHb2oHHtTt7Oe/s0846WLUwcmJT50HS5125zGhXq55klPrUZ/9tIOsWXv1q3ETo2pOvdy066tsm7todHWc2mre1IE6t6D21SVG6UW1Iw8di8qxrzxkT731A8aVfZD+9p1P+xV1TpDxyXlLJD/jys9YqVPvvFRYZ8oZK/tDuVLOedGW/bF0aRvipi3lHNcQx761J9e2Hovk4JfjBv57CXTatSXSx5jkWqLFPgNn0BwY8uK8xnliyqPt3mPObrfudUK7aPO92zmf3aVdvtle7dot92u/2HqftvNO27WN9t+97XzyyW3H4/fvdvU7tG2O3L7tctLxbbND925f3K9b7Lud/FaH79A+s/tG7QPbfrR9ums3P3zbtlOn3+cbX2n7b7JjO/nAb7XJV05u0x55dMHv2fN/2Po3t9v1T3lgSrviwkvbkTvt0w7ZYqd27RkntBtisfedveNVzvEjM7E5F8nne8/5D2bygPP9ag4IHPp8B9t/yp7xQPplaw2pUzZG2miTJzIO/7gIeLIN5UCHnXrhMg7gd8aTh8wYsRlLfS70jDHHKeir07fqslWmNv9FrD7a3T2bbygmNuS0CeI6P+RRBvpn3zi0mdPYtvpmDGVy5Fx7jPT1fOLxPeca5HFKG8dFPRznKn3JL1KXTyDVnkBvPPnqkyeMNRYvj2nqqq8YS6fe46KtyrSZs/KHgA0fIN850K7MfHo9oM9zKnliSAfMwzFdonf2CQJasH2wWB/QzpnbZlx3a7vjkFPbeRt9vf2oW+yv+vI+HfZrJ35u77bDJvu2LQ4+vG32zZ3blkds1y3sO7ctDtuubXPMwe3z++zUPrvnRv1rnG2P3rl9YZ9N2vu2+XD78I4bdvKmbdtjd2qHnH1wO+t7p7Ujdti9Hbzp1u2Ug45qF591Qbvh0qvbLdfc0OO6iy9vF37vnHb8nge1/Tfask366r7tml9c0ab96pp21eTvtZum3tAOOOig/ts4OU4PWo7bORmaDyadfwHM75X4Y1nyucj45/P8IBf/gpIf9OIHqviBqzyJEqPyZm58gTUMwRjyjEOfhYCfL/DHu6jZBVM/8/CzBrwT5MfA+JEw/mUqP5BmPFrACcwPdvEPPMwjJ2t3fugnjFP1AluOBRCX39rhVzn5Abb0166c7Vg6QB5+l5/jRMtxZVweX7jElq9/jVN1tPgR35tH5ZCPi9e5BhwjziX8+LkHfuiMY8e/pPW4Mf/UC58fauMnptETk3/Vyw+qEdOfbsZmLZk/6045x1uh3Xz6pk0dLYArP7nq9UtfkNeXsSqMYXx0xkld8rOvznxDcehnfWKIV20JYwt0xk1dclI/7nf2JiDAUPGCwljsh3b27KJnznlyHuY+2R5/bEb79Q9+1i7car9+Z3/Zpnu18z63V9vpbbu1L269d/vA9p9qH9rpY+0L+23W7ea3bp/de5P2qd22bR/a/ovtgzt8tG10wGZtq27H/7m9N27v2eoDPT6266faxgd9uXsa+Eo7Z/KZ7earftLO23eLdtgOX297b7Jz+8ZG27d9Nt2pA/J2bZ/NdmlH7/TV9tPDd2l33HRlu3fajPbQTRe1e6/7frvjl79oX91xm7bOK9Zd5MA4B0Iddi6SnB93svzsLj/ZW3+zhAuaXz7kJ2f5qQAWTn7u1t8jz5MIEBudsnr7xq2Qo1y51c7iyA9q8cNg3Hz4+V4WERaarImxsDjws8f81DA/ucuNnl9yzIUKH37pkZ/65WeNGSdzU/PLTX2V5Sk7lupHfurlp5r5HRp/+VH/HId+zqn9BHx9icOve/LjZdyk+VVLfqWTRZhjCodzQT9afYU64wv43Ji4YbIIVy7HgVz8WBw/ZcwvZfILmjyBYuNcoy7s/PYPGwj8WODx4/O0SZMm9b/LwzFgnvjJBo4hx87f87eWrDHlnKvK8ZjIEc4FMLZIf2V5qU9+tvAyvjxRa6m87CunT9qGWpHzAugP6XKtQOf1gkwr7Fd9jSmSw3yws+cmP66dvYENhGzC1PFLfvxG+NDfI08tBG/Tp858st36k2vb5BN+2G476fx2xaTz2wl7nd4OPPKotv/J32z7n3p4O/j0b7Ujf3h8++YZx7QDv31MO+D4b3X6w9oR53y7nXDx99u3zvtOz9uv4x942hHtyB8d3477+XfbBb88vz1yzzVt5p0XtQdnzGy/vOuhdullk9tPL7ys/ewnl7crr7653fbAY23KjOlt9h3ntkceuqU98ERrj993bXvy9rPbPZee2HbY7JPtFa9c+KuXjLeOmT7jzjlybjiAXFBcdGeffXb/WyxcwOgAuysWojPOOKP/zzY4MIBHamLgz4JKn0UEWR0Lji1cefp74tNmDE8q9Oj0IQ6gbn6IjN93h8dP5/JjXSya/GYNMZwD+NwM+J+b+M8w+PkBa4RDDjjsLqiFn9xlgWIHzPixWS9++hKbllzYrZuYAg5IGeS4uaD8rXoWe2KY07jwjJFzYi3o5AL01E48Fk8XezY4tP5vWXCoAyAblxjUQFxykkM9fuRinll8ebpCJ+ByE2DB5kmC/3SFn1pAD9gk8Bv2LPDceLhZc+Nlh8+887v2xOHmMKlb8HnS8ubBcaQujj2/hY+efs4tY7FVHrLZOq8pA2R0grkA9uVlX39ajiuycyhPVD1y9rOutNFmnamrvgl0Va+uxjVOla1Z7hCHNucp9VUHj3Niif5RFQEMbDHK2gCLA7sGAl933XU9kK+65tr2iyuuWhRXXt0uufradsm117dLrrmuXXrtde2yjn9ZJ19xzfXt8msnt8uvAZ18dQdaYb/j9NzQX9bh0quu6+Jf037RtZdcdU3Xv7Zd2uXqQS7yor/6mq6GLn8nX0I9HY/+9ZNvaF/bfc/28u7izfEDJxw5x++c2GeyuWBY7PlVRXa+7IRdbPjRKna6LBTseuFyA8gfsuKi40LEj1cSnOgsMOg5iCwwLCb4wAMsCOxqubC58PHjP04hBjwWFurG39he3Oioif8cg0WB+Cz07CD5fXviURv+xMeXxZ7fkufzGhYu6nGx4xUWixZ5+NExF3t4LDbYAPl5giA+ceFQC3WzM+Emad6cb2omFq1z74nODpmfDWYBYyfOie88EZf45KNWcvL0QS7s1IQPdcBVhz9cXr+xILvYswDz6oTxMie8WiE/dRGXxdc4+FArebHBR++rIF6nTOoWYxZqjiWxmB/i8bosbZwvjJXXhJxf/KImNxyfEvlFT3JzTBkvtXMz4ThwnTI3nJ+MBxvHmHExD8wr88mcc97leZ/tWDK+6jx2eQyTK08/7UN+coF1AWTt9mnxBerVJRfYT5ttxqat/toT5keWD/RJnpwaK/2AdmPXWtWDcS/2BjOISbOgTODFw4mOTLsIsHXQRgs2eC07lPlydwIDbQs4od+gw2s3mHdh9/ZXL8p91avINy8HXGKbb5G88/372np9t0h3fcfnmHPsQzJt1RObxZJHZS4w/lMJ5gY9//8rOzF2ziz2XPhcfIA6uEjx4UbBDQEeFyo+LC6AX05kgeFncvlv69DxCoY81M/FKxdwgyE/73X5OVzisrMjDzcFdn/o+V+pWDxYEIjH/5DEI76LAGMjDgsVNwL8qIMTi10v88nNgt0l9ZMbHrtGFlgWKRYgngJ5fUCuSd0iRnzGzmKGnbpYfPitdi8EwNi4obEQUjc3Ds9B5h6ZxdGfEmbeWEiZJ/43J3IyX/zipH7kYIzemHnt5kJOn5abIMcpF3tuUswjMbnxMX/8j1XcGJgHxgIXO7n5OWPiMk5ukuiYJ2rlhsKYTz311H5uiEP9HCNerzFWzifi8T9kEYs54EZDfG4U3My5yIlNTI4DdXmOUzu/288rH/Q8cTI32MjBODmuLvZDyLlOjLVWVBtt5SEn0q4OuS5wQ75yRPpUmAfIV8amjhjytKePGKVLn8rJ+bEPJ3Oip63zlvWztthnUzmuxd7EWQDBDOhjlcnQc2IBeRYw1MdHrvpsqw5+1ZsP2Rq0o8+61L+uA21ybZWdTOE8AHnEHsUhHxcn/xMRFxUXL4shFyAyCwGLO69xWAR55cBNgIWCCxGbcQALDQsPiwsLJjoWf3Zn9LnIicniwP9SRCxs1MTFy2M/u0hvCFzgLIRc+CxkxGA3zOJNLhZ0X+OwsNGnHsbMosKOksWBmwOLJAsOedmJIrO7hMcuGR4LGfkYF4s5c4GdHCy+7G7ZvbL48X+3Ug9zQ2w+XIRrbuohHv8PK7F86qA+2lzseTJggWNx5MbAPPCb9pO6GwzHgpsic4bsGI3FsWAR5AYJhxoZD7KLPXGYPxZS34+7Y2eufc3FeOFxnJk7xsWNnjyMCZAPPf4cN3brzD91UxvnHMed2LyfJzaLPHPAHHFMXew5lnz4yrmEHj9qd7HnXGIj4hMOOThOxM7Fnjn3PKf1vM9zXbs6WngibcbLWKlHHgVjpY+tcubLeMjWg6w9YY1ZV0LdKK5tjjVzohNysg7PO/tAX9uK1CeX85zzbFyvcSgmCzJYFq6O1gGkTT1tLqRDfsppN59x5dAm0BkvdbTGqJy02wfmSj+hLxz9sjZ0jJMLlQWYnTqLDb9nzo6cR2x2aizGXPDsrliYuCmwS+aiY8dGDMDFCocYfKDLzpbFhkWVi5MLHA6P9yyCLE4sXuxWeYXCQkNNLAhc/Cws1s0Ci46FhgWSmwQLAPGok0WDhZe+40MmL37czIiHjUWChYrFh1cX6Fl4eWfPjYkcjAEf5os4LEjwmSM+tOYD30ndAsrYWPiZC8bDYkducjB38M4777x+jCzIjMd5d7HnhsMizJMFefxJYeaSY8PTDjcUxslryIzBhcLTCHWw02bhJi83LHbXLI4cK+zUzk6KnTZzwqLPQsyxwMY8kJubIeNnPOSkLm68HB/qouVmzhxSBzoW4jzn6BOLhZobJ/9xCTk5tswNPswjizrnAHPLXDN/zAXnHJsNfDjWzAU2bmTmJg656rkOsu98yascgF1dxrOPbUhPq6/+9LVnzOSnPW1CTpVBxtFXGb05kw9Sr06kznzWlj5DcsIY2o1Ff2gcS/waxwQZLNucHHzq4HNw8vShla9N2RiJGsvWvA7cmNrlVn9lgK/+1ZYYy5+WCxKwg2Jx5gLkP61wh8uizy6LBYfFnsXVb+OwgLC7Y3fGRYgvi4WLPa8cfI3BxclFzkLDAsCrEDgsKry/ZWHiBsLCyALAIoQPT2Re0OxyecVBPBZIdvbkIi8Lkk8k1OAcY2MxZ8HAn/+ljBpYMLkJsMCweHDCweeGw2JPDupjN82Cip2Fj5o4MamRmC6ecJhT5tjjRm7qoU4WehY1bPJoc7HnHTYxycmYATcdxkxujg9c4jLf7MK5eTAGjgd1MBaOCXWRm8XeXT+LPTdZF3t2zMwzx4/jzesZYmLnJsc5waLL8SIG/jwNcCPhpurumrFznOEyHsbFOUWNtGwOAGNgfDwNcRyowU0Ec8qNit0/+bhBcYPhmOGLH+cetXFe0acO5iLPa+D8I9OmHZv26pc+Xh/yMiYwjv20Ce3GUE6OuqFY6mnz3Eqe3FF64Fi0KVdoG+XPca62Ktu31Zf6uJbVWS88ri3O13G9xhE5cBOl3SQWokyb3IyDXc4oH/TVv9rH0oOsqfaH+MgidcoJ9WknPhckCwoXHX3eA/uulYWeixI7O30uOB7vWZyw8bjPrpLXBOzg0bFocaMgHq9ZuCC5YNGx8LJAs1Mjvh/UkoOFigWRmw3xWEzgsYhwc+ACZ3fIjYG81MCrDxYVcrHosfvPMbLwsyCxULHDZAFkIaFGFgsWFBZQ9ORgMUNHDm4g1MDOmT5PDr7GkcuTALGISYz8kNAa0AGOHzZagJ2xcyOlBnIwPnKyCDNPzIULG2MjJ4sluZwX5pEbCq+lmC9qdLGf1D15UBvv31n4WVRZMNGRh6cyYnOD8Piyy87zgYWdWCzE+PCUgY55gsOxoiUGMmMiPseUzxvIiy8LPOPjfMHOTYaxcXyIx82FecCGHzVw/lCzr5zgeS4yPyxAOdcpJ9QzntR7HATHKe0g/VL2erQ1Bvbk09LP466fsshY8qteLjFH9Y1tX9l+6uwn1Fc+rWNLXS7k1qGs3TEIaxz3zh5nHIcCqqsFqANy1acf/LQB/fSlhUdb4yQ/9frIoRXahnztJ1c7Pgn0GUdd8lmMWTjZrbIzY0fJwsjujp0eFx+LNQubCxA7SRZSd56TukWFnRmP6yz4tFywvmYhFwu5rz5Y+FmoqJ/dNDtfXj+wiLsgsagSE7BgUCMnDQsAMn7EZ7HnJsLiwwePLAr4M0ZsxKFGcrBo8GEj9bFIc7NBR03cENhpsqizYDEX7PJ55wyH2ljQqJsnA95TUxf1uXNnsWO8Ode0PkGljoWKHNxU/MorvvSJR1wWV8bGOJhvnrScK3e+6niVxA2PxZ+nLm4ezDOLLseQOWBh5/ii40mIGwjHmBZfcjKHLKbssInD4uxx4HML6uc84Bgwb8wR5wuLNecDizjzBJ/j7astwA2JebJezjGfAqiNGphvxsZ5gI1jzg0OPvk4PmwssHH+cG55LlOb14XnvPYqpy/QDxswnnyR8Yf80lZ97RNbX3kZQ17q8ZFPKzJe1lxjyFUHN5FxlJNfZeIhiyEdUGc869A+7p09zsA7PUEyYCL1lZutMkVasDr1gn4OQn91DlSeMZKf3GrPfs2prcZNnq36bAGLjrsa5tA7sY9u2oELoTFZcFmoWDyR0clBBnDpwwPwzK0/wM+68CMmehYXbB5fYtE3PrVyE2C3S40ZAxt8YmDPOuHgRw70xsXfxQQdYMFh8WUR8rUPMa2RmOQmJsCeNVgrsD7gvMLxBmA91JY+2BhDzol1APhwzEcfGcg1HjzyeoydH2Krh+MYrYc69NeG3lrJQwzn2jnBRgvP+rWRi9qw4efxcZ7goXOM6AS+8vDRT53jTx+AH6116ZtIe+VUm3COtQPrAdWOjtYasy83+UNc7ck3X8Ybao1jfPmpt61IrvB8yviAftUBNmbj2tmbIItKORMo05q86pCz1Z6DSz/7VV9lYhk37cYFjkXIo3VM1pSctKetQl/rQPaC0WbfmParDdBnYWRXih7QRy9HnrEyBjK+AD/05KFFV/na0CGL5BkjcwtzybHWbPFxcaEFvONmF8urBHai+FuzLfHy2BDHeqw9bXCtQ2St1pIx0ZvPmKkD9LHZKltH2vCnxV+kH/HU1XiCuGPZ1KeduI5dPX3HoM0Yjs8+NmFM2tTZh58wlzx18qtMW48r/dQlR3/6+o+lr3bkGku51p01yEMvr9qFY9Y2BH2zXlr62owHMqbtWBxkniB5+l7sxd6BJQhokUKbCdOuT8ZStpWbIIbx5OifPuZC50QJ/QFy5pOrDVkdOx6g3TaRsWiFfetKHkCfueUO9atOVF2VtVeZWpKvzRqV69hoc4GpXHQ1v3pj4Y+d11C8juCVCa8keJ3BqwYWHPn6Zg5zohf0zZn27OObYxX0M5cc+cnTN7naOU/spwyMl7L+8kbp004r5GrTT7syPHOnTh/kzCEXWR+5qUu9fKB/Ar387CNnbdrVJ19kfRXEqH5DbcrWoU5/5cxnjdr0Q+9aoV2f5Kde3+yPqr/WmDr6yKM4vFbk1ei439nXQoZ0tClbRBZnq6+AY6ssF8AH6ID+8vWRqzzKlpzMo2we9WkjngfXmujTmku9PtnCsa/OepAT5qIF8OSmT/rK0Q7MOcpHewJdcoV2+yzieSOQoyysiVcQ7OJ53827aPrpAydl41ojspCb+uTpKwfU+OrlpV/6EneoBuBcVSRX/7QNxVOXevvGoL6s3bhVpyyM5249YwvHnjrzDvlkHzn95Wdd1YZs/JqD1ngCDjavueQC+cYy91COrHWULfPDq/3MXXXGxAfYx171+mRb9cD89gVc1wr6497ZZ/KUTSDQkcREwr4F0k9/5CF9tSMbK3VVJg+y0OakImcu/fVVPwrWUGPQr/WBjGk7Fsc61dkCc1YMcZXNZ84hOceUfrTa7GN3oVBnq73ahPHx59UBr2x8vYEeu/mMJTKOkA+GcqacsYmHLX3V2eo/FoyNbJ3aUgZD8dRlW5H8HEP6Kdc+7dC4kLXbr8dUWXtFcu2nLmVrFkM6oK7G115l+FWn3lhDdmTHoU17tZkjc2m3P4SsAcg1ljb6IutJ/iiOdViLLTbiL9FXLw1ioCoP7eq00ZJYeYiXupwg9Mra5AltAL6xak76xpavverg5W5aqINjLvvGyb687MtLLqi7FO3qALHs17zykye3ovKBuapf7Qv4mY82/dOnylmftqEY6ZO85MpJnnWlT5XtJ18Y3zGOOjb25SeqDr4xwNAN07jG1odY6rUN5TTGKBkYs6LGSF61Zb/asq5qx5ZrhT7ycnxgKFb6clyU0cuhzTgCvRz4xqpc65Ar0l/Aq2sF/TxnHDO2jJN969GWPABXu341Fq16wAe0S7zYGzh1Jql6+8ryLBg9chY+5Cvs06YPqH7pm9yMAfRLG8DHetV58ECNKdTpm/qUM+9YtQ/1swVZa+q1pU/ykOVZQ9aSdmSAXZt242HTX6ReXl4E1U9ORXIqL32zpT5kW2PUxUY78KJNmzJArrb0Tw4gj1z5oPKA3KrPGhyD/Qpr0beOUz19bdVHubYJfIxX53OoPnTZT71cWuWsKXk5hhpTPUhffPQH6VfzZPzUg4yhDeBjHGPbz/j6ifSveuXMCexXfupSHvf37LNwA5t0qFCT2SrDzVgZD4yazApt8IE5QF6sQDl9kNMvY+kHrNW+fFHzJDeRPtnHxxjmlgOqLetLnsgx1DjG0jbkL0d7+iRqHTVW1lBj1Njpi27Inhz7crRln5YalPWVR2uNtCLtysk3nkh99cu82iovc6ZeHS1xkM2TdvB0dWSbSF1uYojj+Ojb6pNA5xi0p582axvaLNlXNhb2jJU2UPNmP6Gfdvu0ddORsj7ItNarPvPByRppU6c8xK2Qr10ZH2NYlxyALeuyXeJ/VJXBUzYwOmQfTy0Q/ZCvrYWqU7avHTnt9jMHGOWLLuNgQzf0WGlfvnHUy1XOfupTHuVr/cZHVqdf8pWTl3BcctTRmqPa5WTcjFO5Qh6gDy/jV1R/fdLfFmS91a4PdtrUy0t9ysa1r045fdSZb6jW9FUv13rUK2fd+hubhUh+xjZexgFw5KVNmbb6pM2Fzxj2zcU1Yj/9h5CxQfpkjdaMbB4hXzltxgD60xpDXZW1Zy7jVN/U22Jzbas+9GnRyZUHMmb2U59y1mENKRvffHDVZZxxv8bJwpGzkIR6wQmTJ9FYPsj6aUPOgaQtB1m5tZ869WlLpM1c2uxTCxxkW+w5fuQ6Nn2BOvWJrE1uxkJOzhBqnhojgW5x4uVYExnLOLVG7dqSCzhP7A/5Ze36Jzf16Gos+SJj0FZ7jVt1CfTKxgX62E+dsTKeOvMpg+TrD4yZsAb7+ppDG23yUk47sA5lWmtIvrb0GcqJ3j521wrtNX/V0yYHmTjmT1utUa595FEcoU592rEJOUO61Dt+4Dxpt1WvT+ppzV/1yWVnP+6vXmYxGYzWAcuxn7KwIFs51Sf1yCJ5QNncVZ/cBPqsAWQu9MB8cK1nyEd+ysAcQ7aqQ06oJ4bjS+7TyU+ny/F6U9Y2Vk5a50E4TmyJ5CSMXecz42DTnnr7WT8yOnegAi5IbsZRB8ylnnjm1aafenXqlUHOqT5pF9Y2xBvyy7GkDIb8U599UMdsm5xRsqj1A/o1H23Npw192vDV3/HIkacuberV2adVzroSY+msQZgXyEFn3VkPyH7m164+48kTyUdOqK+xl/g1jsHo0wrtykIfZAaa+soFToic9E/dqDxyaY0jl1a7oI8+a1Of3Oqr7MWsLvvErHHkVV3abCtGjXmsfrZj6XP8yNYuDzgHtEO16CvfONq15WMwwG7M1Ok7ym6bkAdSn9zqb53Wh2++1gNZC3LuQPUDxlVOP222Gb9yrV+7GNLrI+QZv9qANacu9WkzZ7VpVzafOlp9rSf76SsfkMe5MEblAnna0j/72od0QzbkoZzqMicYxav2euMfz1rhmKpe2ZyCvtwl+jbOWMHRZ0HIDiATq5c7amIy7lCb9pxEWvMO+WQtQk72q1/2cwzkNp+x6afvEC+56ORrU5ZjTJF+9pVTbxxaOZWb/LEgb5SPOuLXHI4lx2YcuMr6CHjJTZv96k9rvqrLPq0ysGZzGkO9POQ8nvrQKmc8OVnnEOQYg1Z/7VVvruSknFzarFkQwzipM07qU6eemMa1fm20Q7HkZWsd9NMmao3KqR9qARziGRNdyrQifao+++rUZyvMCXKdMnatYYgn15hpyxa9MZQB/4J2iX4IzUIEgbVZFDC5haRfDlBe8jMO8MJCznwgY8mXYxz6yOmL3tr0A2m3PySb17bakes4QOaUkzx0xsx4NR9txkmdyDjJyRa9NcmpfXlDbdoBces5YjzHKjdt1gPSTgsn9Qn0+CLDQx41NvnZB3BqDmOCjIUMzGVfbiL91NU81Tft+iUnc6qnzTGnHRhziKNMOySDIb8cU+qTN9ZaAWpcY6oX6ZOAD4wL15zo1Ne4cpOjTlS9MZJDH332a46EMavdONqHapJTdaPyodc27sWeRA4sk9jXbtJROovQbozKozVHttiqvfZBzZ1c4aO6en0TqVceaqtuSLYm+jkWoU6f5BnDtvqnj9DmPDgHIGU51marf8YYC9XPCw+ZFphXjhiyq7OfOuSsuSLnZ4hjrByXeuVaS+XleNOeQG+dVT/UhzdqjhLaaYV9/Wk5BtUnUccg6OM/1hzUPlxkx6rdGPZzPlJHmzrzJxeMFV+5jltkX27WY065wlePNQZIvm3lVpt9kXbrAdZT/VJnDOswju0S7+wzSAYe6qc+7Qk5OSj1lZdt8oX2Cg58xhYeYPvpI9JW26ojBzGRRXLMp67md3FU7xiFPEA/Yyk/nS4xxKucHE+tFznto+LIcwxZe3KrnzqAf81fdXVOsBmjtsoVxMiYyaWtMZOjPW3a1Q/JcMyrT+pTJ+gbY2jc6tNXWeijX/oYQxloG8XL60zIp1XO/pCu2oW5so5sRerhJr9CPbGRvQa1Ce0iYwj12Y4lD8VUL9CB5DKeXCvUJeSCcS/2BLCY2goTpb5ygMXIFTnRDtS+MIb+xtLuJCVP5N0Z1HiZM2VQZe2pr2OXmy1IX2XHkjFGxRPqstbUD8nGtI8v8zKKl/q0qUPOvnx1QptxhjDWOHLOhHY5AJ46fYZ0qXesgH7aq68ycIzqq3/OTQK+3JRtgX7GAMnNuFw36DPOEIwjR3/tyNizD8ybtiHob8zaapNnPO3KFRlTjr6gzqGwnzHU4ZN+Qt5YawVy9nN+kmOrPX2SU/upT9/Mk+M3L7J+9sG4f88eJ5PRZjCQCbJAbalP31HyqH5FDjr1qVOuwJZjynHVOGlPvbJxEh4Ua9Q3Y6Sc/TyAlUeb+bSlPWV5xPSGKhwX9lFjoJVvXUIbrf5w0o9WGcBL38SQTqQN2Tw5hspJqHcM6FKWU/mpV6dfIv2w1xjoar7kV6621NPKzXYoVp0X9fJs5aW9cofkhHpt5qVVl62yqJysO6G+xhiKp65yx9JlW205Jlrn3Vji6WocGhuxhH1tGaPqao7UiXH/EFoNYuBaOH2Q3EROxFBbZcDA0YGU5aU8iq8N1Bqy7yTr73h8v48tfYU2+XKG6s2aqi390q4t41Wd/NqXV21DsYD1Y6eVk9yU7dvil75yQM2Z9rFkkPOqDHLOtSuLOiYwlCP7lWvtVT9KV2scstk3Nkh+At0orlAPjGFfP+MlTxnIMyZ9oB8wtkg/+0JO9al5gTGAfORsE1VnnRkneVWXvOoDag1CXo4BGfhUkFzjAGX5cjK/PurkCP2zPySD3+qrl1lATVITqasDqX2Qvk5E1eOXMZW1VxkOcFL1qVyBPW201mIM6wIp17i2GTN16oc4oyDH1jhZX3K0009gkwcch3L6KBvfVphHf/tVJ4yXuhpHHSBf5tQuJ1trTw5Al3HQ0Y6Kq73KxDEWOmRt2R/KlTK2KtvPdhSwJ8d81geSS4uu5krI0bfqkpf+9tVlm37JpY7sazd3Ykg3KpatPrWvjH6Uj/HkJSdRc9DmppAWaEsebfWlrTHpqxPJWRws0Qe0Fk8yAzkYQV9bQrty6oynrD252VeXctpH9ZGJnweg1pv5aatsX50+6tIGsKVdnXYw5Jc1qk+euqw3x5I5KkedMdCpl6feeLUPqj1tCXmZM1v01ijHetTbTx/7qZeHDLTVuCJ5cIybXDnAOPrbTz1+ytqG9Al1tMm3n6h+qZODHqAzr3LaUk6/ITl9Uw+ML+ACOOavudVXJCdb843q0yayvuQC9cjWUe3WXnki41ff7KcOn9RVmzpQ46ct+7Wu5IFx/wtagxh4aIKqvnLoq0vkBIj0Tzty9uFlDcrqs4aqA2lXJ9TBqXnTLrTD14ZOmRYM1S9HXzHEHernmNIvx5f87CeMoa+6rMOYOTYwFAPAhysf1PpA+mbdmXsUR57c5KWcUE8cY1SbdmXj52cfmTf5aadNvVyROn3gZ25kbEL9KBhHfs2vHtQx6GcfWI9xhnyU8ZVX86pL/SiOsrbkpl6dNVhbxquyfeWsoepA2mub3LHypg4+0F7nD6izL4Z4tFmjvHEv9llUDWhfW9UrJw/dUKtc+w4mJyTtQz7AepKfdkBM42sbNXlP1wf0E+rSlnLNn3Zbx5H6yhkFfNN/LMjVt9qNR0vNY/GqLF/ZmtAZUxtt1iKvyiDrqbxE5ku9MYwjb6zxDdnsV1u2ykCeedUrZ02J5CgnV13lVFlO2iqSA4ZqrTr6o2zI6od4aUPWr/qLqkdmXsUon9oHWc+QHRg3bdlPvmOodWhPXdpqC6wt89c5QlafunF/G+dlL3tZjzXXXHMRrLHGGj3WWmutHvZB2kWNg4/tkFx5wFjoMh599bTy0wfUcQzFThm7HPtrr7123zeWXFD11lM5tPBSl7G0mTtjKsupdnWVn0Dv2DIGMGfq0099ysZKvcA/+3JstWecqqdVlkcLJ+sDcms9ysmVoy1zqlPWJqxTO33PDfnWpo+8rE1d9jOuSF2VQcZIyLMWecpZo2O0r5w+Aht6bcYyXuXKsQ9q7pTTJ3MMycK+8dXVurChl5N6kXyQudJPPvaMybkAtFc+co5Z34QckLqMY4z01/6CF7yg/7+eH3300cVb7PfYY4+2++6799hzzz1/oy/UATjykp9An/76GCv72tPPPrBvmzZ9KsbSD9nQWcvT5bEvb8hWoT2R/sjJVU6o1199xhH0h+pDl7mSr1z9avwhmXY8ckXqzZew5tTJF1WXXDGWTWCvNdCv85Bx7Ccv/dKuLf1A7dc4aRvSy6cV9OVX3/QD9uVkHFB97Cc3Odpsq02kvzHUaU+OfsnPONlqE+oS49Grq7krqh5u2jLWbrvt9hu2tJtLjvKuu+7aDj/88DZjxox29dVXP/1iP/E38TfxN/E38fdf92/OnDntiiuumFjsJ/4m/ib+Jv5+n/+eeOKJicV+4m/ib+Jv4u/3/W9isZ/4m/ib+Jv4+2/wN7HYT/xN/E38Tfz9N/ibWOwn/ib+Jv4m/v4b/E0s9hN/E38TfxN//w3+Jhb7ib+Jv4m/ib//Bn8Ti/3E38TfxN/E33+Dv4nFfuJv4m/ib+Lvv8HfxGI/8TfxN/E38fff4G+xF/vbb7/9N/CrX/1qpI427bVfUblV95+Jxc1TeUtS3287pt/VnBBnPLHGy5WffmPFqLaM8XQY8s3+KP3ixh+FsfI8na3aR/mkbkge5SfGso2FGve3zTNkV1dtTxcrMSrGfxYWJw+c5C1JbTXGb4Pbbrut3XXXXW327NntyiuvfPrFnl9OAy984Qt7rLrqqgtQ++BFL3rRb9j0rUhe6oS57ac960pZnvq0pw3ZWqstUX0E/YxvqyzP2Pqkr0guWGWVVRZw1dEH2oQ2Y6ROuXIct3xttulvP/MO+cFJvba0py3HqE4+9akDxpY7iue4MrY8WmtQr5xt1qku9ejMm/aUK/SRY6w6rkSOTbvcCnnEy/rVZV/gJx8Yh7xDudPHPkiusezDr/6pyzlJ/VhIjj7AvNmvNmCN2lJf7drkgmobheqjvuZJrrGB+uRqfzodfdqll166/c3f/E3/q5fXXXfd0y/2yy23XFt22WX79vnPf/5vtFVefvnlf0OPP0idMnp8lNWrS262ctUltIu0GTfjL7PMMgtkoa9y2oSx004sYtf6Rc2tLmXjpi11qc827UO6aldX62EMyaGvLmPmuJVphfzkqcu+Orm0WZO2hHYhj7bWqj456omTseRl/cLa5ID0xT401iG7OuQhnxVWWOE3dENy1p82YiILbcr4WI9cdNgS2lNnDOXsGyt5lW+8zCcn86WfcKzJEXKUbeWmPePUnEJO1sm5hc4+0DfjDNlTlmuOGhMM2YZkOcD4yH/+53/e/3eJi73Yr7jiij1WWmmlHiuvvPKCPi0npRxkeertyxHEQW+bXHXqM8dQP2MAJsla6BsLHkgdPHTsBrXV+KLGq7COhHzjq0c2X40tL20g66p2WsetTtjPfDUWSB31pl4ZW8YR2gB8Idc49B0f/fTPGACe85awNjhDeUD25dhPXnIBsZXTTqueWPZrXvnJk1uRPurMVXPKcxzq4A3lSyQ/5co3hvbUp05e1pKyPOtKnyoDZfnCmM6FLTp9M0fWIKrOGMbhmqG1rw2esfUhlnptQzBGyhXGTMBHn9ceqPmSa5xqo9bnPve5/X94Mq7F3gmjNXkNLNAB+0xm1ennRAtstPLTpl1/kINNvnLqAFxjqEtu8nMStdnPOmkdo/OirdY2Ss5cFeiNm/FdBK1laFzGNIY+9OFqz/EI9cq2gBjGAcry6MsV9ViD9LEdkkdx0zZqDCBrVQeqj3r5dfz2gcc8bTVezkva7aecsZSzX+cYZAxgP3mpt/X4eEzsC3joADJxzG/M5A71MwZ9/NAJdNrkg1qzfjnf1S5H25DdWuzLU646UM/Z5KZs3LTZpw77yPZz7PblZZwqZ64KbMalHfdibwCDUKwTn8CeRdTJTlnAST/1o2IlZ4ifOeUnkj+kS7022pp/KF8iufbhJtDXfOpFtXvHV4+cfilbo60xsKcvLTp4GTdlkbGU1aOTT0tMawGZd4if/dTZT6ivfNo8N9Xlbt06sr68CQprlGMsecaTb1x1VaauykmYD3mIl7qsNTlpk6vd1ji0VU+r/1AN9tU5b0OAQ4xcpI2DXVmedtqU8eeVBK3HkdcUvgbBpg/IcSH7SgOddaHzVV+OMwE/fYB121YucsaDJzfHmJCbfbgi48irPkP1oGOxf8Mb3rD4i71BTGwRJvIktpjkYc8LDVk/IEcfUWM4GKBeqLdPPXBSp582gU2uHHXKyaGOHIM85dSBrFtoU6YmeGConsqnNS79rLfa1NmmDE9OApvHLH1qjTk3osYX9OFq14++SL025YxTfbQri3qsgT7ZDsmjuGkbNYaqS331qfyco+wrJ59+jeccyUufKsvTV5v9jKUucwJl51++evnan26tyDj68iHui1/84gU1YEf30pe+tP+v92g5X41rDBd4fPmw0nh8kIkP/53fS17ykt7XusxN+3Rrhf20A+3WYl+ecuqAdY/yMb72zJVcgf15z3ve+BZ7B21LEFoTGjyTKoMsPnXw6gCR6yDUG7fKQxzjpj3rZizyaNXTytMmKidtFfpaR+YGKduHkydYtWc/8xs7gS45+qu3Pn1tcz4EutTLTV7aae2nTq7QPhRvSIYnt8J8tPSR9VO2nzFG6ZI/pNeWco4Z0FeH3fq1Z9z0TT/4aQP66SuPfo2TfOWh2LQCjvGU4WSs5ALj1TVC39TJrzItMWkBi/Xf//3ftx/84Afte9/7Xv//ubJ4rb/++u3kk09uv/71r/uvF15yySXtH//xH3s+MA+L+Kc+9an+K4fbbrttr3v2s5/dvvjFL7abbrqp973mmmvaRhtt1H9rJWsxBn3krCv18qpdZJxR0JdWPlCf/toyd9orf4ne2ZPYJENB7WcROQE5oOShs1WfbUXqK9cdt3ZyCXUAjrCuqh/iksebBKi++sCTk/qUrUsOPvoZg1xDsdTR2hf0K8/+UCvgUk/d0Qt11lzHjn+9geb4QMbFljFArT9t+inrTx8/fZMrP23mTF3ajCmMkTKtcQR9YqZNP/u2WS86IFdoNw5tRdort9pE1kYLrAeo025rjbXuIX5y0578mlObvrxe+exnP9svxg8++GD78Y9/3F7xile0Zz3rWe3v/u7v2lVXXdUOPfTQXn7d6163YOePPzHZ+R955JHtxhtvbI899ljbZZdd+phwv/rVr/YLPjveb3/72+3nP/95H8cnAfIL+sLaqr72QR2b45NrHDlCfXL1Ffgkh7432eTRf85zntP+6q/+anyLvc4ZaGgxom8x1S8HDPSt/Iypj63xkyMypv2Ma5uxRtlB2rRXbsq0LnjqiGOemld78pUrR5lWONbs0xon+3K0pT311ps8IM9a9Mm+usWRRdaQsrwhmZzAGOqTR5vjB7kZoDVO9U1oN4Zycqq96qx1iGcfZC3alOuxUk4Yp8oAf4F+aNzaEqnHZ8jPdkivXBcjZOLSqld2vtjJs7M/+OCD2/nnn9/WWWedfrFHd+GFF7ZPfvKT/Y6c3Tr8Lbfcsp133nntX/7lX/qF/TWveU1761vf2n7605+2r3/96z2Hm8DLX/7yPs+f/MmftG222ab94he/6H14/5+10FrLUK3ahuZkSLZPSzznVR1xcq7Rm1dd8oFx0FU77bh39gYeGpQ2+6nL/lAhyhYM6D8dT4597Dk5yTFvlTO+MVI3JOuf8bGZ275tynBYbLIG+rkAWXvGA9mXoy15AK52/WosWvVykWte+XLTr0KunOzXnMiA3NXffDnGRPJTrvxRMeRnH17WkrI860ofZH0do3r5wpiOMePpmzr5CWPb10++PnK0yUud/mIoH6h+mfPpdDWGuiFb9rEDPkBdaqml2k477dTv7Fmk2am+5S1v6f+F6T333NO/jtlnn336d/As6Lzaede73tX7wV1ttdXaueee23bfffc+NjcBdvDcJLgB7bXXXu2HP/xh/9Tg/FqDctaZ84RurDlPXtqqrvJcJ6yBNtcKco7Km304S7SzHxUwYRHIFpu+ynISlQMcbPLlqR/ykz9kI2b1G2pTtg51+qesLcdsHSB5CXkgn5SIY96MZwzazJW89Kdv/LQL7drSRx2AmzcmdfZTtq8MiMdFZl3pZ3+oXk9842jPnaJtBfrqq962yslXn3Nhrdqx0SqrlwfU2SrXfvoQS6ReOeswb8bUN/Xaxuozr8Q2PjFoU5d8+gL7kH6o77le4yaH84WW1y4s9uzs0fGhKu/o/+3f/q2/EfCqhnfzr3zlK/td7Oqrr97HJgc3CHb7u+22Wx/X8+bP/uzP2oc+9KF+AeQm4Tt7YR3ws6ZsnZvUORZ1eQyUted8ORfKctPfPjU5f2lPG0DHZxzj3tkbEDigPEiZuPLVqR9qq53YDr7ac4BVZ00AXfrJV69OvfmA+eXVnNVfe/LlAfqCA8FJyy4D+BUy+57k1qNfjWU/awX4JNJHXcZIHiBWxseWOeSDGtMTjTHYMjZ2aVxQmTNjGyNzws28ytqIbzxaYyDnTSJ9aDM+rTphHpFc+vonn7bG15a6oZxD3NRn31xCH5FcUOumP6rOxemrI0b2ayv0y3hDNWRfHccXedddd12w2MNDz+uJ//N//k+/mPMB7EknndR/y+aP//iP+2sIP849XgW52FMDNnw///nPtxtuuKHtt99+/e5fH3Nbi+O0PuBY1NGv45OLTr027alXpmV8XCuA68Zrx1aZpxeAzDWGnj6t42Gsr3/965dssUcGOTiRg0gkR6DPyUKWq+wkAvX6i6wjYw7p5KbNVpir+mpPOetBrnbgoqONA8Hkb7/99v0JyvvCa6+9tl1++eXttNNO63cx//RP/9SfqPikL6CfNZpX0PfA503DGJxInAieJFm3O/cKbLbwXcCJQ4zEmmuu2b//ZNfENyAOOuigduKJJ/a/uHfmmWf2Fxb+xDFuzSHkKGNnLNap3fnIuXHMCWOBzK9OOX3Sbg0ic8hBl3VZD0iefXXKNUfy5WXtQ7yxxpZy+madycl+jrfaR+UE+qkHTzcG4PmbO3v89GXXylcvsR1zzDH9+/fjjz++/cM//EN/fuLvzp7XONTBeb/JJpv03/D53Oc+13+wSxxzEjtrrnWpt81x1DEp02pTTrsgJtcnXxM95ZRT+rWBbxqNAvZRnG9961sLborj2tlTHIXkAGuxDgTAc5FLP2V5xs1Y2jMm8lA/9XUBQM7Y6UurLaHO8YHqp1zt+tacGRPwbpH3hGeffXb7xje+0X8r4IMf/GD/zQNOar5ixrcI1l133QVjsR5jqqNFr43FlwNMzMMOO6y94x3v6PteNLTcBHj8Pfzww3seJzsXhvGoN2XjI3OhcCK++tWv7t+LfuYzn+kfo/kA7fvf/36/oLNb4lf2fvnLX/YfjPE+9LjjjusvuIcffri/GVCntZvDVr2ytSTkgyGb7VhIbvWjdc7tW5/1aLeP7DlvP2vkODD33BCNBbDJBzneascm0keb/MpLvrJ95afjqqs+wDEKx20Mfaq/3FwrsCszZ3C4Ln7yk5/079U9n3kXzVx+5CMfaTfffPOC8/C+++5r73nPexZsdljs+XB3jz326Pl8uHvRRRf1O/3//b//d/86By5xa232qcW+UJe8of4Ql3622uhzLfKEcu+9987/ceIl+2NhZ7x8oD2unb1FiqG+B97CU4bDQHJw2J1gudirb0K9eeUju9gDdfqJ9FdnTeo8wTJOReZFFuk3BPLzbQDeN7J7Z+HngPzpn/5p/40CFt6//du/bf/8z//cy/DNYW7i2GLXxu7kr//6r/tFnBN+7ty5/UWw77779t9L5pGXfNttt12/IGOHxw7ibW97W7+Q5wlf81Hn3nvv3S699NI+7t13392uv/76/iLkxsWO6ogjjugfuT/+8Y+3D3zgA+1f//Vf+6+08SjNzYHvNSMTK2NnCxx36uSog0O9XKiMnR0MkOsxga/sooJOf1p9QMYXzot+clJnfHXAvMztWmut1d+Ad9hhh36hkpNx7BMva0mkzbHQZx6cA8CccFNl8eDcwp5xWAipy40AcZHxpT5a/IiRdQzVpM65SWjPPrwhrvA4Oe8s1OxW2dkzHjYxLNhsLjgPeUJ+7Wtf2//gF+cyGwp8AT4XX3xx/yEu42E3z6bjzjvv7GNcdtll/c2Ad/7MkfNrS35bakqdY1A3hDxGyCLjJJhvFnuusd/mj/ny2I9rZ58FCwcDnBjBpHFHASTj4tYHrnZsnFTu9AAn6V/8xV/0Nk4+fCxavbHxy4kDWWseMGEe9Tn5yUdHfmrlpJEHMp7AdyifMAc185UvdhUs8s4DY3N8zEkuMPgZN1vB/HziE5/o313Wvzlz5vSLMV9LO+GEE9r06dPnWxb+3XrrrW3rrbfuT7KhvIyLmq6++ur2s5/9rP9HKFwcvKrhlQ0XGjcnxkb9//N//s9+fBxLFhTGy02MxZ5FLxce8jhv9pVTJ5hH8lDPeuut1770pS/1NzieHLjoefJgPurCq6/An/lm/m2pXdQ+kJe1eVzNkWMBjJXFh6c1/vheN/ORPsRQBtgy7ljzwznKmHmFwaLF8eHRnldnfGvlfe97X/909eUvf7kfM3zivfGNb2xHH310e+9739vH5BrlGH3nO9/pF0dinHXWWf1XF/P6FNaUNQPHMsQBdX7SN2UAFx3fJmERZ6OEjifLL3zhC23jjTdun/70p/vvzlMj5xvHx3rx5ZzmSZaNEGN/1ate1W9EWPQ33XTT/vzhqZqfAXa9EVkLfcdGDXVs8uAktCdvyF9QAz9PfMstt/TnC3877rhjvwFkw/TOd76zb5Xts3nkTYF/S7zYW4gF0tJnMA6SPu0f/dEftY997GP9xceJx+P9v//7v/cHgeScmEw035Plznrqqaf2xWBjoeEAcNJecMEF/fdk+cCFwfBOjpi8GsAP8CELB3ho8qwra0v9kM4+4CLlVQqPhJxcLFp5ANMHOCfGyAOtjgPJNwb23HPPfkecY6F/wAEH9LsTb4bssDJHxko9cTmZDznkkDZlypT5h3veH69UeAzmPeZmm23WJk+ePN8y72/WrFn9IslFzbEhdh0LfeaZXT03jWc+85n94y/Hmm8+cKPghsLx4XGad/W8qmIBwZdxsLi42HOsa/wcj3pb55Lzg5g8LbDAc55MmjSpn8+dd965P68YA7yMkUDHWNhhez4x9x6HCo8RLeckCyQXIwtK1lhzcZHxNMU7ZRZQPpPha4L487OzHDNv6tyYmAOOe94IEzUHfEAd3Gi5zvjaIe+muYb4DjrnLZ8N8cdTGAsmc09uFjye7LbYYos+LnPKVxR/9KMf9cePuaRm5gl7HqOsw7rU2cqnrdcMsva8TpQzFzqOOfMpjzFw4+UcpM0nFOMDZOYXX2IYi/mvYN7xgWOMjFd1AO7Q+LQN6eGDjCkPcDy5QeViz3E56qij+o3Cscce27fK9nmq5jz1Lxf7cX310oLqQUCfOi7q//iP/+gfQbiQuOtyEvLVKHYZTCg3Avr86ze+8nT//ff3HAZIUexODzzwwP49Lx8ysOByF2dR4gM+7sScjOxk3vSmN/UHz/zAepw8Ze3qgdzqQ0wuIBZfvsvLKwre/Zkr/ZkHYztHtM6PdmTmh3eF7Jq4C3OhMZatttqq17Og8O0Adh/sBFnE8PVENi8wp30WsBevtlq/2/7e6ae3hx56qJ3ete/sbpQsgFwYnPhvfvOb+xwceE4ILmrGxsJDHOp1sTQ+fews9iwk7EypiRsXJxpxeH3DOFjMHnnkkf4Rm/Hqy86jLvYVOR7zq/Ni5IbFRoH5oXbOGWr+wz/8w/YHf/AHC/wdAzaPL0DPjZTdK4s3TyicX4DNQ4L4yvC++c1v9jdTbnCMIY8tOQSLD4sk5ysfvrPQcl1QMzvu//W//lf/7njzzTfvb+5ckMRil81TEzLzS1zrdlzI5nGcfBWRTRM7cZ4ifBfNwsH5xTXG6wo2TPDRs4nhcxU+t8GH643NGecHT5zEYLcLvBlZQ9Zhbfa1awOMR51c/YDzKC/t2jJX6pOb9rRlLUO69Elf9UC+Y0jIxQaozbFoB9ac+uTSDi32S/L3W+3ss3hliuXkUWYR4L0ku0ne1+LLDoJE7C5ZVDghWTTw4YTk9QMLKjsRPqjklQInH++1uSnwVLDhhhv2/2Saxy1icjKSa9RuGxmgt5+tB06eevgsKiz03Ix4t82ujH+yzbtt6idnxkv/qhPmYwfBXZo5YtfHUwtjoWWXzPt03ieySHMhMhf4cgIQx/jZrjw/x/Jd7X+67DLtfy/zvLbmX762vfXDH2hrvG6D9r+Wem770+Wf35Z6QTe2Ls6f/emf9a9e2BVzMyE2uyPyWKsyYE7oczNhwWCx5bhxEnFM+WfrHJ//8T/+R3/MeRfKH8eYRR7futh70/TYeZzg0gprYM75vIEbIt+84KbCgsuc8QhPn0XUXbdjyBjGRE/t7OZ5DcDjMU9EfLhXwTeJlP3n9ezOiePNh3i0joHrgfjsiplj5osnU443cXiK4smIJy1uWhxrnmA5tznfvva1r/XxiGP9OS85LvOx2HN+cm3xJMHNhBrg8gqAGy8bKOLzoTrzSU2MhZv3+9///n6DxqseYnIz5JzgdRznp2M0L2O1bz1y0l65rhX6VP/UA/2EOew75+po0akX1W7feKmrrZwE+sydddOv8SqSW8ECzeYs39nztMbN+aMf/WgPPpQW9NlAs06yGfGPa5XjyDXCE9643tlTXA5waIJYBPgghE+SeVeIL7t7FgA+VOHC4o61//7794sMJyQXLTsfCmUX4esfFhEWEy5edlYPPPBAfzKSIycKuSL18nyHi46D4wHSDriAuXBYjHkkZhHBj10diy+7J74RwGLliZsgpvOSOsFiz2MyB4+dqDVi46Cwq2OcjJcdGRcnMdzlAX3ESl2+FTr9K5dfqW30rJXann+8XPvKM/6sbf2MP2g7PuPZbY//s3Lb7c9Wbh979optjWWXb29/5zv7xz12/tzEWOjYZbIg5wJjLlsWCBZwF3vmgBOQ96HUDtgVsrjwxMITxnLLzXt3SmyewvgwzQ9ojZ3nFK2yfc4TzgGehKibk5r8fE7AcWL3zCMuixlPe1woxmBezZExWci4afAVPMa/OH+8/mIDwlMLO3Rf5VizOcjJeHly4GbCNcB5zvzgx2LPwg+fi5Qx8dssPNFi58IkhmMwfvZpzccxY3PC0yc7eG4wPClz/lCji/2HP/zhfr44hjwNcexY7LmmmAfyc7PmGuCa5ebBZzzIXBN5Dpo7awPogTKtPsDjIX/IVuFc0CbQ5TVNO5Qz+/oJ7dknRl0rhq71hLyhWLTYKh9oF/C4Nupiz7rDmsGXLSrYQLAx/cpXvtK/ymF95f+d5fzmRsDTIk+QfFbH9d6dj4u32CeyUPq0nPzsfnmfymLNIz6LG4+0nOBcqCyiLBgMjN0iiyePHN/97nf7XQkLBgMD7PDZ9fLqhp09j9XUw66eC9bXG060rROnXCfV8SSHk5wbDwvHHXfc0b+Hxs6Fyt2WJw8WfL4ayaslatdfZJ8cOW/YqJkPy1i4mA/05KZlB8VixcXIGHmHzsXIiec4k78AXX+ZFVdom/7Fiu3qZ67Y7v6T17QH37pxm77F19pjr31Du/8Zz2p3PGOVdukzV2of+aPntC9s8eX5p9DCP44VrzGolzqzbsDJznhzsWdB27Db0XOT5r05CxvHheP1J93YnvWnf9xWWKbbXXZ43l/8Sfvrv3p9vxCtscaa/XjI4/EQ5MrxwSEPnxOwePKUSA5azivOL3bEvE5iPtkxewyIo8x46DsuF3t2tXy2sDh/LMjs7Pl78skn+5sW54w5bAGvr9iwsOC6OaE+LkaeQLjpM5/MA68K+WPnxQ2R3ZiLS40r0DkeuHxwycLMRc61x7dXODa8DmCxZzNFbD7X4VUhOdnZcwNjIeCphXOAD/tYbGjh8JTJos83WnySyRporaPOcUKbfeT0H0JyaR1z+shRZ0zzCevDLifjqZNbfSsneejUy1NOnbwhZH3MP8dtcb+Nw6aNY8pnZrymY7PNxocffmPDzbHkml3sxX75KJYBDA2CYjlR2b3z86Ms3uzM2XEAdu0u9uwWiMFukROJ3Q2vN1j4fUVDyyLL4DkZ+TCJR2M+kGB3xCM2rwbcJSas0TqzXmQPlEDPjYXXAPzmBrsdLkRuXiy21sErJxZgHr35OqPjr7Gso54QubNnp6cvLYskN7Np06b1n2XwOO/O3roT6lbofJfqFvsj/2jF9utnLNuu2+AL7a5vHNge/N5F7dHzvt8ees/ftRs6/T3PWLnt8Iw/bR/8/GfnnyYL/1iE2Ykz1qw/c3GseDRkbhgHx4iTiz9e23FsOf5rrbF6V9NK7YXrv6m9+I2fa6v9y6bthW/4UHvZ+n/T3vLmN7VVX7hw5515Mq8yCwzH+Jxzzunng5y8cmAh5Wug7GhZTN/+9rf3Jzk7HXaz3hzNUVvqXJLFnsWSPxd7zz3iOgbAYs/NiU0K1w99jjeLPecuMhc0+dl184/puGDZkXNDYQEnDjE5h8yRc2ROxso8+BqH32jn9Qs3NPh8YM5iz2dmxOXC53Ge+eQ1KTVy82Rx4ckSH44veXnK9vOqvLGRt9ZhnWnXNqSnzfGIOkbOyZwDr6nUGS/9qpy8ah+yUQey+RLY0QPrtY9snOyryxg5VrmsNXWxZ/Fms8k6yFM/x841lrUCG2sT6yrHkDcS7OqJyTo6rv+D9qWrv+Q3BmLByiyMLJhcmCxoPPrhy+LPYsCOg0d+3ttSDL7u7NkxsoByAREn43OSudjznpWBE4sBcwPJR2n99M2amdh6ImGnZffIqyVuROx0uIC4kH2cA+RBxySyw+ddvjGNm3mVE1xEzA8fPHMx8iqHHR8tB4UPOfn8gp0ytfDOHj93esakJWffdliq0x3zRyu1O5+xfLt+1Te3W162dpv82m3a1HsebrOP2q7d3O3u7+wW+6//z6Xby//ydf0FzI6AY8HjHycDc2BsW2VyubNnfhgH9XLC8VqDBYyFf6vuqWG11V/WXvDad7Y1PnlMW3uzC9raW/y0rb3xWW21d+3all715W2lLt6K3c3J2B6jOoeAGwyPqSxkLOL845Azzjij13FecL5wPnDusLPlJsqF4nzV42AuntZ4X87rCx6BF+fP1zg8YbKJyTzCPCzubEy4uHhNxE2cOWODwpzxBMJrFBZhNhh8jsEHuOyu+aCU887z2jFk/OxTA/8quS72bB6YP76lRB6+icMxZpPCawFeqXFNsXjwFVZuNjxhM8e88yc+cwSXJ6fcVFHTUF2ek6nP/pA+fW2Nk3n0oZ8ybdorx5i06pXlC23WYB+bfPvJt5/6tGffuPZrXBf7/ICWc4RNFm9I+HYVx5SNAusiT2B80YDNCDdnzjFfo7Ie87aAtxF8wYXzq1uTx17sX7vu2u1F83dkFkxhCRYD7i4sUOwe8KNwXnlwBwI8SvKoyW6Kk5mLgpOTk5GFjsdRFtqcaE5YXhHkB7Ts8NjREZ/JqhOWB9J6jWdfHn0WDnY4vJtHT9yhHQUnPPXxHoxHdGNlC08/ffVnjph8dshcnLxD5bURNy8e79Gz+HLx8xjGYmQc4xvPMazYxV1qpRXat7rF/tfPWKVd/4w/btc+d4N2224/bDNu/G6b+qG/apO7nf1d3WL/jT/sYqzx0n63zIfh7Og4DsxxjdvHnp+bBcWdPTUx//S58bGT4IMiTsgvfOYTbbmXvqa9bMOj2lqb/7ittfHZHc5qa21ybocfttXftm1beZUXthWWX/TbRSnbpy5uQvyzdj64ZvFiN8/jKu802STwGoebJwslx4a68GWuM57HxOPCzp6FjGNODo4l4NgA+wmOOd9q4MmOc4Bzxjy0efypnQ9CufDY+HBTZZ54KuWmxDdd+CoqFyw3LK4DYvLqjvllfMz50LwIdS72zBM3Xs8rvnHFEw/XFQs7NxfOa/Lw+RmvaPjjWuVc55HfbyjxBMKGgE0NY683NsepnG0CHfPCucL1yrygx5fj5ROiNucRDnVynLhm0HGDhgvcmMiH43qQuWk5TuQhHjl9cyCfsTM2cqFn80V8fNHDQ48fHPKRl3o4J9UT39wAXp0bWuAYiQPUoyMOG5uxvo3DRoLjwvnFespnpGwO+aPPUy6vZXmdh43PY2bOnNm33fo59mK/+qovaKu+YNEPQ7JoZCaOb0awO+C9NAs3vnz4xw2AnTAfPmFnF8EJxO6WE54PcDn5OeA1LgfLxZ5dJZOLLWsBTpoHQztyxquTKzh4eTDV008+LScDJ5D9mltuBXbutlxgLFTs4gAXFn0WGj8AJj7zU2Nk/D5n1/aL/R+y2C/frln6H9qdB57Ypl12XLvvneu0G5/5R+3aZ7ygX+y/8szntHd+9MPth90CxC6V+F7E1g/s23ICcsGys+ck4yuOXBR8Awf4tcc//+M/aC96/bu6HT0LfbfIB9be7Ly25ieOaSu94MVtxRXmXRiMxfl1XNbBBczOhfOGmxMLLTK7Fo4VN0UWbMbBt4vY+XAOcfEahxzmAcjEZm45B3mHyWLIU+IQfJ0G4PGahQWVbwZxvmeezAc4l5gXznOePsjFEy4LKecwx5j5d5HAnzlmbDUW/ZyrtKPj5sC/WuYphRsK5xMy72t5fcNukJsaXK4xFhN29Hy7iQ0YsbnhMM8sIJyTnI/4+QqHnJk/YS0eQ+eaOWI8HB/OG54aON+ogePJvPKZD8fOPPhhp88TETcpjinj4ymJjSI3RWLDJz594vOtJmskDnNLHtYN1h7OD3bC5OSzDD7k5zjxFoKNHnPG52m8gSAur8d4C4GeeeEDdeK7saUeYnE983kjx8/cOS91jqzR+dIGGDvnDOvd0B8bY85Ljh91sdmhDp5qWVv5Y0PEgs8H9n6pgfOWrwF3a/LYi/0aL1ltsDD66jggLAC8P2InwTt4LkhaHmc5aAySieEDUB5n+faB/+iH+Ll78IRhYjkZ+Jeg7PC4y5qTeJVvTTmhyvrJo6VuOPqnXV/90aNDNjeyNuXspx5fDiY7O+aVx2XmzN0GMguAO73Mh5x92+U7LL3Sim1Sv9g/u93woVParO6Az73xlPbgtlu0X//NG9uN83f2Oz/zWe09H/9Yu6K7w7OzJ4exHacwHzLHhRscCxY7W3aNXKh8cMrunkWFb3isutKy7QUbvL2tvfmFg4v9Gp88tq24yqptxeUXfVVHjhwjfeaBV2ssjuRn4efph1cKLFC85+biY4PBOeRJPvTOvoJFgngsaDxxshtO8Oqi6uBxs6mviohnzUP5WNTZ+PA1V/5YiNkR6pdc+nm8nRf7ttrMiQ/nDOePu1B2pORmrMwl5136wofHAmUM+J6H2PCDyzUCh/zmzFrsp4754amFVw5sEmbMmLHgnCMeTx/8exNey7EbZbEmtucaiy/nGws1i7n/opdXEXzGxHnAEzBrDJ978L9RsagRnxjUwg3Bn/jYcMMN+2PABoHXjjy1sFjC43MgOHyzi5wsoMQnHk86HHteIWPjaYnPbjhHqIdXiGxmWaMYd163HkvnJedHfbXhjx/XF3MEuKGwYeAzPGrh6Y9rjznjZsSTNTdqv1nG2wI2jrynZ9HHttiL/Su6R/9VugI4GFmkqAPgjswFwqMlFwiP2Zx8nHic+Dw+UzQXLAcAPScjJwH+DNaY6PlKGBc+E82JkHXASX5OsPrk4itHvtCuTV90yaWfOjjaMk/GMA67COaDE4xdPGPnAzsuPnb9LJy8b2OnYKyMgUwe9cuvuEJbeuWV2rF/tFK3oC/TfvmPX273fePYNvWwU9ojxx/b7nv329pNz1i6uxGs3Pb4o+6Rf7112+u73Y6Pqhnb+qkzZTgcB04sjhkXHos+P5/Au0J2yXxouvWXv9SWe9nr2hqfOLattfkF3SIfr3E2/VFb/Z07tZVWeWG/s8+c5FC2HhYbzh9OXN5xcyLzSoSFkguLCxw+Cz8nMn/sYlzsiSnMBRyzix2LmwukfWXO2dTR8lRAXkEs2oxf87GI8qqFD0t5vGbukwOcZ/1p1Q1xHJv9hP6jYLwEsWjlOCb5tMkxN31Q+RwDPgtgkWJx5Xxh8WQh5vMDFh7Oc24sfIbFIsyixHHhGHK8uRmzW+eGz7nALpyFn90t35bDRnw2jiyEfMOI+B5/FmzOGTaJfPDNdcdrYzZbfJjPeUtNbDpZvDnG7373u/vNKceK9Ybzi+POWFjs2VXzGowxcFzZjLLJYL2Dw/XMHHh+UIdzJbTVuQTo6HOeeR4yRzxBc/3xZMKGmYUesNliTPwLaF7v8DqHf8PB+sINkDcnjIEvfizWYs+3cSyOQvKgCvW0HDAuFEDRTEoOhJPdC4ndA/qMjywfmTu0cXKSBH2hb9po9bOf9syXdvupyzjAfsbIVtDnJOSi567NEw/vubnzsjvhpsdJzW6BHQffUqpxkWufb+Ms0+3st/2LldvVz1yl3fmM53UL+5+3X/V4Vic/v93zjFXa5c9cuX36OSu3Zy8/732z9dkKYo7Ky8XGMeDk4oTiQuFxkkdiXh9su83WbcWVV20v+usPtDU+fcKCD2jX2vic9tL37d1WWecNXcwuX8ldawDsOFnUeXznYuObBuzyOPF5SuS1CuPglQq7dBYHLnZ8OYc8H+tYKpIrJ/vVXuF8pc4Y+sFhEeJc59y3nupDa7yxaq4+6qtPrdvYyGmTD3zSVZ92fYaQPspct1znLLTsyPlcgGuAY8crBxYhXnXxmpabN8eYhZjXPuyYObd4YuQmzmaPY8+/Lud1Ggs8c8q5wati4rOYUyN6crPpZCHmVRZrDecLehZoXtew4SQH38yiz6aLVzvs8HmVJZeW12Ds/tlVk4M1jg0QY6Uezj+uC7iMPecDINuv8lBLjuQRl5sjTyg80XIDo+WGx82HGxcLOjt+rlOuGxZ7NtbjWuxNygBIbFEVY50McrKf9kRylYf6Vad/nWh1TmDqQY0z5KtOOTn2x4qvnoPGjoMPm3kPyCflLPw8zvK4xsnEu00uCv0yZpUB7+3X4x9VPXvltvefrNz2/ZOV2j5dC/b905Xbfl37hc629nLdY2KJITx2fbw40epcUhcnOYs+CzKLlzd3+i9cpfNb+QXtha95a3vJv23RXvL27duL//Ez7QVrv76tsNyybeVusTePMQF5gDKLDnGJiUwegIyOE9pa0bOQehMD6I0JzFfzihwz/crLWKlPe/XNOc14yPKBudM37XKGfIFx4dScIuuTK48Wu33lGksdsC8/W2V4LLz82xmeAvmQm/OH854FlkWaRZjXECz23LT5JhG7ahZpFlh28twYuEFwzP1gnk0R5wLXE+/Yic/mg5rISX6eKNg4+TkYNvJxA+G1DK94qIn4bFg4h9md8yE6CzgxOLc4r1hc2dnz7ULOf3KwAcWfJwEWVXPUeQGpp805TCRfGRCbV+Q8UbDAs7FhQ0h+vqbJlwBYU5gT6mPHz4eyvCLncy2efhfr2zg1MYNwIFlk5aW92jyR1CfPiUhUXpUrz/rqiVnbCvTJeTqe9ponkXNFywnPjoEPgVikOGk4kemj52BVf31p69zzim35lbvdcLfQPrvDs1ZeoW+f84KVeyA/r7Ov0GHeVx/noZ5w5gPmqLk9bvSV5czrz8uxwvO7hXfZ57UVln1uJz+vrTT/1U3Gp6+/ejnaUi+PC83cifSzn7GHkHy5+o5C8vQD9oFzW/VyjZW2nE/tKY8F/RP6Yqtt1cFFxo9+Qn7FKG7KgJ26iz3HzsWep0MWWBYmFnu+wcTnIbwSYZHmuuC1Cosx307jWuHbfTxFutizCHJDcLGnJm4A7Gb5dhFPC/TJy+aBD2x5JcR7fxZ9dsXs2PlaI7Xw1VQ+V2Gx5zrkWmUhZ6HnhsNraDc6vHIlBzcfNnDoci7qPGQ/2wr0jEM/x8S/gubphadZxs5XzxkHv9fEFxe4qaHjdTBzwQLPZpL5YWfPDaFbz59+Z09CD65FcoKoBxanLU82oS59klPlIZu+9PMklWMOgN6+XGRbgS3tIPMkmGha446V35gJ9Mk3R8YDGSf7xtS2gDMfxu77Xcurnp7PYj9f1+vlYZuvrzlps9bkJ9SnbZ68aP837QtjqCNf5lQ/yk47JCcv7clLW9pHAXseJ/VZT86hwJb8lMeyq0+g9xwwV44zZTny7dNmHuPISV2F+ppHP/TaWGTrzp6vBPIZD+/oeTXDIs/XAln0+Tow3+Zjt89rFXayvMbBx3fn7Nh5zcO3kOrO3l03r0d5TcPizu4cHu+1ef3DaxpuNDxFcDPhcyderfJ5ELtm/PgyAJ8dsNDzioSnDcbj7p1F11exfHOIjVrOkXCucn6dm9Qro0/ow7j4DIG83PCYR24+/PEFBd4M8LTCZx88hfDFBf89BQv+7Nmz2+OPP/70i71F5MFFzmLTzmKYgxDYah8Yv/rQT6QPcNFNHdA/ZZDxrT8nHiCbr8bTXvuizon2bNOOLrkibybWkbFB1k07CvDkAnOkPWVstuqFvmlLXdqydQwVVQ/XemxrTGV396kbBXgZj7zpN1YMbVmrOn202ddWxyDU4Ze1aBM5vjpW5apLm/nNYQx0yUs566k8ddY9FAM9eQTHiVcfLMYs5PT5kJoPbPnshW+k8T6eBZc+H7jyvpzdKQso7/v5dgwLPIsxryR4CuArmORjEXRnz0JIfHbnPDnwASY3BBZoFkh26+Rih89Cz82EV6bsjslJLdyYiM/Nhdcm1MVumc8SyE9NvH5iR89NihsQNyz0LMA5H0NzJzwW1U6bNtcCxsXXR3lnz00SDvkZJ4s8dQq/McZXTfkHmswN/1kRu/tuPV+81zgWmvLQgRdD/OTZN0b1yZsGOgaoTV7tI+sj0Oub/IydXOXsD3FoAXGUtWmvOapd2b4+2jJ25YHkaktOjjvnL+tSV/uj9An1xhuy5xisgRbAqWOsYzKOtvRNm7HVWZOyfnKGkJzKG/JFp2w+Ywh9tFeu/cxZ88ipOn0yT9potSU3fYU16D8UE6ROOXOoRwf4Nh1fT2S3zqLFDptFitcxfLOEhZN3y+z82bHzgS2vVFjI+b0qfxacVxV8c4edNjcQYgFepxDfD4D5YJanA3bvLMK8XiEm/8CIxY+bDgslr0W4ebA4UgPx+ZfgfIOHb7OwW+Z9OB/i8lVQFn/elfPZGv/SnVdLjIl88P0FgJyDOk95nKud9S712TKPPJ0wR9TCB9XcyPAR9nnVxLf5mDtudNww+errYu3sPWhZgCee/QS2euIA+onUJy8xxLVvXfRTrty01xhD40h71SsPHTTaWgMwb86JflmXXJFcOcr6J4yBnJwaD3BSJF9btoK6h2JoT3loPkXWBLhQh3zoO1fqbBP6Jk+9uYwthsZQ21pnBTzz6qMs1GU+x4WMXp627NOaI+Xk0iYHDI1vFLDDTx9aYnJ+JE+bPtpA1mC8jM3OmEWUd/f0WYDYxbMgs+tkt81OnsWTVw78j1l+2M5CzWsSPkz1O/YsrCzqxmenTXx2vCxwvL7gq5XEJBex+OYK+fh6IjkB36Hn1Q/vwPm3I8Tn1QyvS9Dxsxx8XoAePq+aWOh5quCnCXgCMBZ1UwefueVceaycH/W01G4/demTeq4X/qEXNxjGw9MK3+7j69zUy7eBBIs94DgyL4u92JMM5EHNIpDroFIe6sM3ngNMHTAuBSfXnHKEfVr46mvMytOmj3L2aRPq0lfZfurkUrv9jJO5QC7GNY5Qp2/VK5szMYqf/cwrsGet2Va9oJ+xrKfOhVza5CPb14bv0LjUGy/nEaRP6hMZI2PZz3zoMha1qYPLBapP2kGe1xlrSM7xJ9AZfyiPfdoE3CF9+gn6FfAq1/zAetWz4DIX+rBYuxADdqO8N+cbOehzLLTsaln4sRHHGrDR14evTrIg8woDnTXIAeY0lvHp0/reP3PCp69dnT7efIhFbcL8ylm3oA/w189Y+iiThzHyL3hZ8HlK4mboTp6FnxuAIA5PL+Na7C3CxNl6ANNeOSAH5IDTlj7V3xae3OTJyRxpS5287CNnDXWR0Ec7rQckeeqSV2325SVST76aUzn18pAFNvKZ01Yecvax06YdOX1F+tuHW2N7IcmpSJs5kM1r31aYRxu+IPMlB9njmbaMO8pPGeQ8IGMX6ityXKk3prJjSFvCHMjGSG7aiKNP8isvW33UZYyhOKm3djm0osbXRx3HjBYeMgupsdFnjsxvPHUJF+uaK/MoGyf72Id89Ks2+rUlt3LlylOnPu1DfMGCzw6fVzq8QuJDbJ6a2MHzdJHgA2puCvwQGj9z3K3nYy/2JsykyrT1gKSOVr269EcHkFNfBwvkuiNCB09u+qRvctSnf+q1aa+QW/1SnycTIBZt6o1HX9CXm/4ZP/upT3nIF51jso88pKu+yRP00zdtgFi1Dvm0VSdPvTbtyQXJH4K8ROqV08d6q736KOc4RnGch6qTlzFogeO0TXvOqfrKVT/Esx75XEvatSUfOfWVQ5uyfqNs5jVGjpU+Cxl9ffSTI089LbHSx758fcxJW32UtaFTn/6VPwT4tMao8VI/tFaoTx1+6AV9OHzlk28UsdPncwk+A0nwYTg/WbHYi31Nmn1akysDZHTJT27qs199QcavfFv90k59uaNLWHtFcuEkz5g1nrqqH8XXNgo1Z/rlXGQ75ENb5SFbzjmtqPyqr2NDJlY9FvKSn37yHYNj1Ed9csey1fzGs58+6rQbEx9gX7/UZ8z0TT2An30BdzwbF/Xa1Kd/9Ul7hZwaTxk9C0ouPNU/uZmfnGmnLwe7sv3KR0+buZTtVw4wXvW1n37JyeOgTdTaBNysP33pV7/kJTdtqUtbxShetoDXUHzjiNc4oFvPF2+xz0CZ1LuTOkC/TqptTgwt/vokP2PqYyvXNnnq1dW4tjWWen2xJ4cWyBsl0w5dIObJmFWXfGTt9OEo0wo52QfGyRhytKV9SJ99kDxaOdaWMSp3SBZZQ8rJU1ZPTuct9cmjNZ68OtfGqb4J7cZQTo66jJV6kfNa7ci1luTl3KQ+kT6j/K1haNxZn0hffHwiQJdzQyvsZ4y6VqAzbuXSEtu+XPrVxzrSx7qwCfTJMQ6y3IxrK8aymy9taR+SaV3/0m6eoTrV0RfEcG7l0vI1U75zv/iL/fOX6j+M4C4hVnz+0m2l5ZZuKy+3TFt5+WXasksvtPW/J7H083p9z+naFTseNj8cWWqpzt7pVllh2Z6zUhdv6S4GvmL5ZZbqbassv2zPW27ZeTVg4x9KPH++nfpoV3j+wg9f4C3TxbM+4iOTo7ctM6+e5ZdlLJ3/fDt1M0HkIM5yy87zdywrdDWgx96PpwP1WQMxlppfvxz+Nak2WupG3/t3sejrDxi3dmIwjt6fOroYcJdZZl4dgnHoDy9z9P+ohLno9M4l41gwhs5/mQ7OAbw+R6eTA5hf52Fejnl2QQ5i679ix09/4jnOVebHYf60z8sxL7Y5POaAWMt0xweb9hyH7Urz57kfSwdyYNO+3DLzYlDDvHEszA/HuVqQo6tJf+Zq2e6c8Jj3x7SzO1fmWHDM5+dgHGln7sxBHPhZA3lWnn+sjON5JYdjbgza5bv5Ngb+nLv9fHex+xwdP+206PD1vMrjQQ7qogbr4PqwBmIwDo95X0PkmMcpx6PjLN1d+9o5N3McxHIcXqPLdPy+hm4+4DhX1GEtjsPzm2smOcvNv8b6+ehicDyo33lYdv7x6I9nZ3e9AnCIscC/y79yx2Ec1C9n+S7mvBjzjn2uV5nDGjyv5HBN57pK6zgyh/4rde3zw04McvT+8+fz2X827/eEFnuxX2q1V7ZXvfo1bYMNXtNeu8EGfbvCS1/Znrfquu15L+7wole2l73iVQvtr3lNW/3l6/f6pVZbr29Xetkre5v+6796g3m+L+7ivGjdtvRLXtnWf9WrF8mxYueDzRxrvXJhfOyrv7yLTQ1dfbQrr7H+vByv3aC95jWvbq/s4lE7OZ676is6ed326g1e23Ne99p57cprdnV2vs990Svac164TlujGwd6/OflmDeOpV9COy8HvtjgrN/Ny9JdDuJjJ8cr158XQ6z4svl1Mo6ufek68+vsQCzm7rnzx7FUV+tKa6y3oD7yrNeNgxwLxtHFQcc44YGVuhx9DfDmHw9zEONl67yq18+by3X7mqi/53RxGAe19zG6PMzbep1Of1rGboznvvAV/fxjcy7IueB4dDkYh76063Xz4lwx30u/ZL1url69sI4O+DhX5HhpF9Mxgj5HP8+cV/PGYY7+ePRzNW+MgDzrvWpefZw3xFilH8f8Y/6CdfpjbI20a67bnTeclwvGsf6Cc+713S7p1a/ZoC27+vz5Jk9XK+PAboyVGQe2+cdj9W7+0Yu1XvnqXq+dcVCbMV7V5VumuyYc51LdXK07Pwf+tKs4V10M6iVH2tfqxsF5xTipdbnV112Q3xycS16D8F6x3sI6mbOV15hXH/nJ9eK1F8439a7dXZOOY6kXr9dW6MZhfFrWjTwe8MixoM6uhhdwDZKDsXY5VivHY95ccczn1bnCSxeed/NyvLotQw7G0Y2HOOt164sxGMcqjGP+XBFjtbUXXSvWWnfh9cFcLd/leP3rFq4Vr+7qfP78Y96fN6uuM+94zD8vQJ+ji+FasdrLF11L1p4/Dvxpl1v9lQvOSdrXdOcVxxwbddCus97CawPeC9davz+mHnNyoMc+L0c3jvnzQK3PXvll7Z3vfEf/OzmL9W2cZbe7sk2+c0qb+vAjC/APB17fnv2lS9uzt7qibw++8NeL2L9+9h3t2Rtf2p4z3/6Ow29cYJvS4dJbH2xLbXNle/YWl7dnf/nytuIOV7Xr7nhokRj/dNDk9hxzdLEO+vGdi9j3+GHk6Nq3HbZojstuebAtve3CHMtvf2W79leL5vjng29YOI4uxgEXzMuBP/jGj7ocnZ0c1PJvh96wwBf7lbc92M8P8cmzXCdfXXK8ueTY57xF54q+4yDHWw5ZmANcdftD83LMHwfyFV3e5FCXddLufe6iOfY7v8thDV37zwdP7uvXTs3Mj+NYppu3K7pjlDHe+s1Fx8H8ayPWARfMGwd2xvGm7vilP8d3he2vmpejA8fm0u4YZR0cQ2PQ7nbOwhyA84zYjpNzRBtxrvv1lO5cmj+ODs/b5or2i1seWCTHu464ceF59cVL+3NVGzj0J3cuzLHJZe3vD1h0HDd018JKO84fRzdXz936inbxzQ8swnn3ETctzNGNY5czf7WI/fCL7uzr7495l+Pv9l80x01djlV2uqo9Z34OeD+9adEc7z3qpj52H6Nrd44cjPfIn9618Hh1Od6w7/WL2H9515T2wp0XjgPeRTfevwjnfUcvzEG7ww9uX2AHR/9sfo4t543jr/ZZmAPccvfUtupXuhybz8/R8X58w8Ic4APf+uWCuSDH9t+fl8NjdszFd/f140v7lyXHrfdMbS+KHM/pcMENC+eKOB+e1OWIudr29IXjwH7sLyLHppe11+593QI7uP3eqW21Xa5eOI4O501edK4+eszNi+TY6rTbFthoT7iky9HFNsdr9rquTZm6MMcd9z3cVt+VHB1ni47T5fjhdfctsIMNj100xxbzc4jvXHpPe07kWH+Pa9uURx5tTz31ZP9bOd16PvZif9J517ezf3pDO+dnC3HqBde3E8/t0Nlov/+TyYvYT79w8iL2716wqP2si27o4/b2DshnjTPH938jx/WL2P8zcsBPO/HGnaOLmfbfRQ7GPmaOblz/X+bojlFyag7Oo7T//5CDa+Hpcywao+b4wThzgDN/yxynDOQ4+fz59lE5fjzOHF28tP//kuO08eTo8LvI8b2hHOH/n5HjjJLjxHOvaxddcWubM2du/5+ZdOv52It9h/MnMIEJTGAC/+Uxs8NvLPapnMAEJjCBCfx+YdkO/d+RHYYIE5jABCYwgf/aYJe/yN/qHf56AhOYwAQm8HuDdTp0f894xv8F7ZCHhJOSrcQAAAAASUVORK5CYII=;" vertex="1" parent="1">
          <mxGeometry x="230" y="500" width="379" height="165" as="geometry" />
        </mxCell>
      </root>
    </mxGraphModel>
  </diagram>
</mxfile>
